<?xml version="1.0" standalone="no"?>
<svg version="1.0" xmlns="http://www.w3.org/2000/svg"
 width="343" height="600" viewBox="0 0 343 600"
 preserveAspectRatio="xMidYMid meet">
<g transform="translate(0.000000,600.000000) scale(0.100000,-0.100000)"
fill="#FFFFFF" stroke="none">
<path d="M1960 5343 c0 -5 14 -8 30 -8 17 0 30 3 30 8 0 4 -13 7 -30 7 -16 0
-30 -3 -30 -7z"/>
<path d="M2030 5340 c0 -5 5 -10 11 -10 5 0 7 5 4 10 -3 6 -8 10 -11 10 -2 0
-4 -4 -4 -10z"/>
<path d="M2080 5330 c8 -5 20 -10 25 -10 6 0 3 5 -5 10 -8 5 -19 10 -25 10 -5
0 -3 -5 5 -10z"/>
<path d="M1730 5304 c-65 -17 -87 -26 -45 -19 17 3 71 12 120 19 82 13 85 14
35 14 -30 1 -80 -6 -110 -14z"/>
<path d="M1980 5306 c0 -2 7 -7 16 -10 8 -3 12 -2 9 4 -6 10 -25 14 -25 6z"/>
<path d="M1930 5288 c20 -5 49 -20 65 -34 24 -20 25 -23 7 -14 -13 6 -29 9
-36 7 -6 -3 -20 1 -31 9 -10 8 -40 14 -67 14 -26 0 -48 5 -48 10 0 6 -4 10
-10 10 -5 0 -7 -6 -4 -13 3 -8 34 -19 69 -26 36 -7 68 -18 71 -23 3 -5 13 -7
23 -4 13 5 12 3 -2 -8 -11 -8 -26 -12 -35 -9 -13 3 -14 2 -4 -4 9 -7 6 -13
-15 -23 -15 -7 -31 -14 -35 -14 -5 -1 -8 -5 -7 -11 1 -14 15 -9 65 25 26 19
49 28 61 24 15 -5 15 -4 3 5 -12 9 -11 11 8 11 33 0 37 -1 35 -11 -2 -4 4 -6
13 -2 13 5 13 8 2 15 -9 6 -5 7 11 3 12 -4 39 -7 60 -7 33 0 50 -11 51 -30 0
-5 -7 -8 -15 -8 -8 0 -15 -5 -15 -11 0 -8 -4 -9 -13 0 -14 11 -27 5 -27 -11 0
-5 5 -6 10 -3 6 3 10 1 10 -5 0 -14 35 4 64 33 12 11 16 17 9 13 -8 -4 -15 2
-19 18 -7 30 -44 40 -108 32 -27 -4 -47 -2 -51 4 -11 17 -83 50 -107 49 -17
-1 -13 -4 12 -11z"/>
<path d="M2088 5283 c7 -3 16 -2 19 1 4 3 -2 6 -13 5 -11 0 -14 -3 -6 -6z"/>
<path d="M1725 5270 c-14 -7 -8 -8 20 -3 22 3 42 7 44 9 9 8 -45 2 -64 -6z"/>
<path d="M1591 5254 c-272 -38 -441 -141 -691 -420 -78 -87 -82 -93 -74 -106
4 -6 3 -8 -3 -5 -14 9 -88 -124 -118 -212 -23 -68 -45 -197 -45 -263 0 -14 6
-33 14 -41 13 -12 13 -23 1 -73 -7 -33 -17 -68 -21 -78 -5 -14 -4 -17 4 -12 8
5 11 1 10 -11 -3 -25 13 -274 20 -298 2 -11 4 -37 4 -58 0 -20 4 -35 9 -32 5
4 9 -3 9 -14 0 -15 -4 -19 -17 -14 -17 6 -17 5 -2 -13 30 -37 48 -100 55 -192
3 -50 10 -95 16 -98 5 -3 8 -39 7 -80 -1 -41 1 -77 4 -80 3 -3 1 -17 -5 -30
-13 -27 4 -56 27 -48 7 3 16 -3 20 -15 10 -34 20 -24 20 19 0 41 -8 52 -19 25
-6 -16 -36 -10 -36 7 0 6 6 8 14 5 8 -3 16 2 19 13 3 12 0 17 -8 14 -10 -4
-11 3 -5 30 4 21 4 34 -1 30 -5 -3 -9 2 -9 10 0 8 5 18 10 21 6 3 10 14 9 23
0 14 -2 13 -9 -3 -6 -13 -8 2 -7 46 2 55 -1 66 -13 61 -13 -5 -13 -4 0 13 8
10 10 16 3 12 -15 -10 -21 19 -12 63 5 19 5 37 1 40 -11 8 -35 81 -28 87 3 3
-1 15 -9 27 -19 26 -20 60 -2 50 9 -6 9 -4 -1 8 -7 9 -10 27 -7 41 5 17 2 26
-10 30 -11 5 -14 14 -9 34 4 16 12 31 18 35 7 5 4 8 -6 8 -10 0 -18 5 -18 10
0 6 6 10 13 9 24 -3 37 1 37 12 0 6 -8 8 -18 5 -25 -8 -48 38 -28 56 11 11 11
15 -3 25 -15 12 -15 14 1 23 10 6 22 20 28 30 8 16 8 18 -5 14 -8 -4 -15 -10
-15 -15 0 -5 -4 -9 -10 -9 -19 0 -10 27 13 39 12 6 14 9 5 7 -10 -3 -18 -1
-18 5 0 6 -4 7 -10 4 -6 -4 -6 4 1 22 5 15 8 38 4 50 -3 13 -2 23 2 23 5 0 8
22 8 50 -1 27 2 50 5 50 3 0 5 22 6 49 0 37 -3 46 -12 37 -7 -6 -9 -15 -5 -19
9 -9 2 -55 -8 -62 -14 -8 -3 121 14 158 9 21 15 46 13 55 -4 28 63 189 85 203
5 3 8 9 8 13 -2 12 30 66 39 66 6 0 9 4 7 9 -2 9 53 61 66 61 12 0 8 -10 -16
-34 -12 -12 -29 -20 -36 -18 -8 3 -11 0 -7 -6 4 -7 2 -21 -4 -32 -7 -13 -7
-20 0 -20 5 0 10 4 10 10 0 5 12 22 27 38 24 24 86 97 103 120 3 4 -12 -9 -33
-27 -46 -43 -48 -29 -5 24 18 22 26 35 18 31 -26 -16 34 47 145 152 77 73 125
102 111 66 -3 -9 -2 -12 5 -9 6 4 8 13 5 21 -3 8 -2 14 3 14 5 0 30 12 57 27
27 15 58 29 69 31 11 1 21 6 23 11 1 4 14 6 27 3 18 -3 25 0 25 12 0 9 4 16 9
16 10 0 9 -19 -2 -37 -5 -7 10 -4 35 7 24 11 57 20 73 21 29 1 30 1 5 9 l-25
8 25 1 c14 0 42 -3 62 -8 21 -5 36 -5 33 -1 -3 5 3 8 12 8 10 0 37 4 61 10 30
7 42 7 39 -1 -1 -5 -11 -11 -22 -13 -10 -1 -22 -9 -26 -16 -7 -11 -9 -10 -9 1
0 11 -3 11 -15 1 -8 -7 -15 -10 -15 -6 0 8 -81 -34 -98 -51 -7 -7 -17 -13 -21
-13 -4 0 -23 -14 -42 -31 -37 -35 -32 -32 54 24 57 38 137 72 137 60 0 -4 5
-2 12 5 7 7 19 12 28 12 8 0 27 6 42 14 23 12 29 12 45 -1 17 -14 17 -14 -5
-10 -12 3 -20 1 -17 -3 3 -5 -3 -11 -12 -13 -10 -3 -7 -4 7 -3 14 1 35 7 47
14 28 15 36 15 27 0 -5 -8 -1 -8 12 2 29 22 30 23 14 18 -8 -3 -35 1 -59 8
-35 10 -48 11 -60 1 -12 -10 -14 -9 -8 7 7 17 4 18 -39 12 -26 -3 -52 -2 -58
2 -6 5 -53 3 -105 -4z m105 -12 c-5 -8 -76 -4 -76 4 0 2 18 4 41 4 22 0 38 -4
35 -8z m-196 -32 c0 -5 -4 -10 -10 -10 -5 0 -10 5 -10 10 0 6 5 10 10 10 6 0
10 -4 10 -10z m-550 -365 c-7 -8 -17 -15 -22 -15 -11 0 14 29 26 30 5 0 3 -7
-4 -15z m-70 -59 c0 -2 -8 -10 -17 -17 -16 -13 -17 -12 -4 4 13 16 21 21 21
13z"/>
<path d="M2241 5253 c7 -12 15 -20 18 -17 3 2 -3 12 -13 22 -17 16 -18 16 -5
-5z"/>
<path d="M2188 5253 c7 -3 16 -2 19 1 4 3 -2 6 -13 5 -11 0 -14 -3 -6 -6z"/>
<path d="M2406 5252 c-2 -4 2 -18 11 -32 9 -16 12 -18 7 -5 -3 11 -7 26 -7 33
0 14 -4 15 -11 4z"/>
<path d="M2296 5225 c-9 -26 -7 -32 5 -12 6 10 9 21 6 23 -2 3 -7 -2 -11 -11z"/>
<path d="M2215 5210 c3 -5 13 -10 21 -10 8 0 14 -9 14 -21 0 -13 4 -18 13 -13
8 5 8 2 -2 -9 -14 -18 -5 -22 23 -11 14 5 10 12 -18 40 -33 32 -65 47 -51 24z"/>
<path d="M2093 5195 c11 -11 67 -8 67 4 0 3 -17 6 -38 6 -28 1 -36 -2 -29 -10z"/>
<path d="M1569 5181 c-13 -10 -38 -22 -56 -25 -31 -7 -87 -46 -65 -46 6 0 17
6 24 13 7 8 19 12 26 9 6 -2 12 1 12 7 0 6 6 11 14 11 15 0 86 38 86 46 0 9
-19 3 -41 -15z"/>
<path d="M2307 5179 c7 -7 15 -10 18 -7 3 3 -2 9 -12 12 -14 6 -15 5 -6 -5z"/>
<path d="M1410 5167 c-106 -57 -172 -98 -166 -104 3 -3 17 3 33 14 15 11 58
35 95 54 38 19 68 37 68 42 0 9 -1 9 -30 -6z"/>
<path d="M1760 5170 c-8 -5 -10 -10 -5 -10 6 0 17 5 25 10 8 5 11 10 5 10 -5
0 -17 -5 -25 -10z"/>
<path d="M2205 5167 c-12 -10 -14 -16 -7 -21 7 -4 12 -3 12 3 0 6 7 8 15 5 9
-4 15 0 15 10 0 20 -10 20 -35 3z"/>
<path d="M1707 5155 c-9 -8 -19 -15 -23 -15 -15 0 -83 -52 -141 -107 -32 -30
-48 -50 -35 -43 12 6 22 15 22 20 0 6 4 10 9 10 5 0 28 18 52 40 23 22 62 48
85 59 42 20 61 38 51 47 -2 3 -12 -2 -20 -11z"/>
<path d="M1926 5149 c-15 -12 -25 -23 -22 -26 2 -3 17 7 33 21 33 31 26 34
-11 5z"/>
<path d="M2039 5143 c-13 -16 -12 -17 4 -4 16 13 21 21 13 21 -2 0 -10 -8 -17
-17z"/>
<path d="M2326 5152 c-11 -2 -15 -9 -12 -19 3 -8 6 -16 6 -18 0 -2 16 2 36 8
29 9 37 8 44 -4 8 -12 13 -12 31 -1 11 7 24 10 27 6 4 -4 2 -9 -5 -11 -21 -8
-3 -30 21 -26 13 3 30 -2 39 -11 9 -9 19 -17 22 -16 17 1 18 -1 5 -10 -12 -8
-11 -10 7 -10 12 0 24 6 26 13 4 7 6 6 6 -4 1 -9 8 -19 16 -23 17 -6 21 9 5
19 -5 3 -10 11 -10 17 0 7 6 6 15 -2 8 -7 15 -18 15 -26 0 -7 9 -18 20 -24 11
-6 17 -16 13 -25 -4 -12 -9 -13 -19 -4 -10 8 -14 8 -14 0 0 -11 13 -15 37 -12
6 1 14 -3 18 -9 3 -5 14 -10 23 -10 9 0 28 -12 41 -26 13 -14 30 -23 36 -20 7
2 17 0 23 -6 6 -6 12 -6 15 -1 4 5 -12 18 -34 27 -22 10 -38 20 -35 23 2 3 -5
16 -17 29 -12 14 -35 51 -52 82 -16 31 -34 56 -38 54 -5 -2 -16 5 -25 16 -12
14 -31 20 -61 20 -47 1 -52 -7 -5 -10 35 -2 74 -25 74 -44 0 -8 4 -14 10 -14
5 0 7 7 4 15 -11 28 4 15 20 -16 9 -17 13 -35 10 -40 -3 -5 -1 -9 4 -9 5 0 17
-12 27 -26 16 -25 16 -25 -3 -15 -21 11 -92 90 -92 102 0 7 -52 31 -67 31 -4
0 -17 5 -28 10 -11 6 -17 7 -13 3 8 -9 -9 -35 -23 -35 -5 0 -6 6 -3 14 3 8 -3
19 -15 25 -25 14 -41 14 -21 1 13 -8 12 -10 -3 -10 -10 0 -20 7 -23 15 -5 13
-31 15 -78 7z m264 -73 c0 -7 -6 -6 -17 2 -14 12 -16 12 -9 0 6 -9 5 -12 -5
-9 -8 3 -13 10 -12 16 2 6 -4 9 -12 6 -8 -3 -20 -2 -26 2 -9 5 -7 9 7 14 21 8
74 -14 74 -31z"/>
<path d="M2468 5153 c7 -3 16 -2 19 1 4 3 -2 6 -13 5 -11 0 -14 -3 -6 -6z"/>
<path d="M1836 5136 c3 -8 -11 -30 -31 -50 -19 -20 -32 -36 -27 -36 9 0 82 73
82 82 0 3 -7 8 -14 11 -10 4 -13 1 -10 -7z"/>
<path d="M1584 5112 c-55 -37 -134 -104 -134 -114 0 -4 8 0 18 10 9 9 46 39
82 66 36 27 69 53 75 58 19 17 -1 7 -41 -20z"/>
<path d="M1755 5131 c-3 -6 -12 -8 -18 -5 -8 5 -8 3 1 -7 9 -10 15 -10 24 -1
6 6 9 14 6 17 -3 4 -9 1 -13 -4z"/>
<path d="M2040 5115 c-19 -14 -27 -25 -19 -25 14 0 59 35 59 45 0 8 -5 6 -40
-20z"/>
<path d="M2160 5130 c-8 -5 -11 -12 -7 -16 4 -4 15 0 24 9 18 18 8 23 -17 7z"/>
<path d="M2205 5120 c-10 -11 -26 -22 -36 -25 -11 -4 -19 -10 -19 -15 0 -5 8
-6 17 -3 22 8 67 52 61 59 -3 2 -13 -5 -23 -16z"/>
<path d="M1765 5087 c-40 -41 -75 -89 -75 -103 0 -4 9 5 20 19 11 14 20 28 20
31 0 2 21 25 48 50 26 25 43 45 37 45 -5 0 -28 -19 -50 -42z"/>
<path d="M2285 5120 c-3 -5 0 -10 7 -10 7 -1 2 -7 -12 -15 -18 -10 -20 -14 -8
-15 17 0 31 15 34 38 3 14 -12 16 -21 2z"/>
<path d="M1395 5087 c-11 -12 -36 -34 -55 -49 -19 -15 -32 -29 -29 -32 3 -3
32 19 64 49 33 30 56 54 50 54 -5 1 -19 -9 -30 -22z"/>
<path d="M1861 5084 c-12 -15 -21 -31 -21 -37 0 -6 1 -8 3 -6 1 2 15 19 31 37
17 17 25 32 19 32 -7 0 -21 -12 -32 -26z"/>
<path d="M1969 5093 c-13 -16 -12 -17 4 -4 9 7 17 15 17 17 0 8 -8 3 -21 -13z"/>
<path d="M1665 5090 c-3 -5 -1 -10 4 -10 6 0 11 5 11 10 0 6 -2 10 -4 10 -3 0
-8 -4 -11 -10z"/>
<path d="M1411 5059 c-13 -10 -19 -19 -15 -19 13 1 48 29 43 34 -2 2 -15 -4
-28 -15z"/>
<path d="M2305 5069 c-9 -14 4 -27 13 -13 4 6 14 14 22 17 10 4 8 6 -7 6 -12
1 -25 -4 -28 -10z"/>
<path d="M2339 5039 c-24 -23 -37 -36 -28 -30 9 6 23 9 31 6 8 -3 21 2 29 11
13 16 12 16 -8 5 -14 -7 -23 -8 -23 -2 0 13 38 34 49 27 4 -3 8 1 8 9 0 23
-11 18 -58 -26z"/>
<path d="M2700 5075 c0 -12 42 -66 47 -61 3 3 -6 19 -21 36 -14 17 -26 29 -26
25z"/>
<path d="M1308 5052 c-16 -9 -28 -20 -28 -25 0 -5 14 1 30 13 17 12 30 23 30
26 0 6 -2 5 -32 -14z"/>
<path d="M1656 5045 c-14 -13 -26 -27 -26 -31 0 -4 14 5 30 21 17 16 30 30 30
32 0 7 -9 2 -34 -22z"/>
<path d="M2236 5054 c-9 -24 -7 -27 9 -10 17 17 19 26 6 26 -5 0 -12 -7 -15
-16z"/>
<path d="M2448 5053 c6 -2 18 -2 25 0 6 3 1 5 -13 5 -14 0 -19 -2 -12 -5z"/>
<path d="M1166 5020 c-15 -16 -44 -39 -62 -52 -35 -24 -48 -47 -16 -29 29 17
117 99 112 104 -3 3 -18 -8 -34 -23z"/>
<path d="M1816 5037 c3 -10 9 -15 12 -12 3 3 0 11 -7 18 -10 9 -11 8 -5 -6z"/>
<path d="M2011 5034 c0 -11 3 -14 6 -6 3 7 2 16 -1 19 -3 4 -6 -2 -5 -13z"/>
<path d="M2427 5030 c4 -16 11 -19 26 -14 21 7 21 6 3 -21 -17 -26 -17 -28 -1
-22 9 4 19 7 21 7 3 0 2 5 -1 10 -3 6 -1 10 4 10 8 0 7 7 -1 19 -7 11 -16 17
-20 14 -5 -2 -15 0 -23 7 -11 9 -12 7 -8 -10z"/>
<path d="M1679 5023 c-13 -16 -12 -17 4 -4 9 7 17 15 17 17 0 8 -8 3 -21 -13z"/>
<path d="M2275 5027 c-14 -11 -15 -16 -5 -22 9 -5 11 -4 6 3 -4 7 -1 12 8 12
9 0 16 5 16 10 0 13 -3 13 -25 -3z"/>
<path d="M2372 4993 c-17 -20 -30 -39 -27 -41 3 -3 6 -3 8 -1 1 2 18 21 36 42
19 20 31 37 25 37 -5 0 -24 -17 -42 -37z"/>
<path d="M1250 5010 c-8 -5 -12 -12 -9 -15 4 -3 12 1 19 10 14 17 11 19 -10 5z"/>
<path d="M1766 5004 c-4 -9 -4 -19 -1 -22 2 -3 7 3 11 12 4 9 4 19 1 22 -2 3
-7 -3 -11 -12z"/>
<path d="M1586 4979 c-11 -11 -15 -19 -9 -19 12 0 38 28 32 34 -2 2 -13 -5
-23 -15z"/>
<path d="M2135 4950 c-14 -27 -25 -59 -25 -70 0 -12 -4 -18 -10 -15 -5 3 -10
-2 -10 -12 0 -15 2 -15 14 -3 13 15 68 150 60 150 -2 0 -15 -22 -29 -50z"/>
<path d="M2201 4984 c0 -11 3 -14 6 -6 3 7 2 16 -1 19 -3 4 -6 -2 -5 -13z"/>
<path d="M2242 4988 c-7 -7 -12 -19 -12 -27 1 -11 5 -8 13 7 7 12 17 19 22 15
4 -4 5 -2 1 5 -9 15 -9 15 -24 0z"/>
<path d="M2299 4976 c-52 -55 -61 -73 -78 -147 -14 -64 5 -44 25 25 10 36 22
62 26 60 4 -3 8 1 8 9 0 8 11 26 26 42 14 15 23 29 21 32 -3 2 -15 -7 -28 -21z"/>
<path d="M2415 4990 c-3 -5 -2 -10 4 -10 5 0 13 5 16 10 3 6 2 10 -4 10 -5 0
-13 -4 -16 -10z"/>
<path d="M1181 4951 c-23 -22 -47 -42 -54 -45 -8 -3 -6 -5 3 -5 8 -1 28 13 43
29 16 17 32 30 37 30 4 0 10 7 14 15 8 22 3 19 -43 -24z"/>
<path d="M2486 4965 c-22 -33 -21 -54 2 -29 22 23 35 54 23 54 -5 0 -16 -11
-25 -25z"/>
<path d="M2580 4980 c0 -5 5 -10 10 -10 6 0 10 5 10 10 0 6 -4 10 -10 10 -5 0
-10 -4 -10 -10z"/>
<path d="M1270 4970 c-8 -5 -12 -11 -10 -14 3 -2 14 2 24 10 22 15 10 19 -14
4z"/>
<path d="M1635 4970 c-3 -5 -1 -10 4 -10 6 0 11 5 11 10 0 6 -2 10 -4 10 -3 0
-8 -4 -11 -10z"/>
<path d="M1728 4973 c7 -3 16 -2 19 1 4 3 -2 6 -13 5 -11 0 -14 -3 -6 -6z"/>
<path d="M1101 4920 c-30 -28 -50 -50 -45 -50 9 1 113 100 104 100 -3 0 -29
-23 -59 -50z"/>
<path d="M2173 4955 c-3 -9 -3 -18 -1 -21 3 -3 8 4 11 16 6 23 -1 27 -10 5z"/>
<path d="M2519 4941 c-5 -13 -8 -26 -5 -28 2 -3 7 6 11 18 7 22 8 22 21 4 15
-20 15 -20 19 12 3 30 -34 26 -46 -6z"/>
<path d="M2015 4949 c-4 -6 -5 -12 -2 -15 2 -3 7 2 10 11 7 17 1 20 -8 4z"/>
<path d="M1226 4933 c-6 -14 -5 -15 5 -6 7 7 10 15 7 18 -3 3 -9 -2 -12 -12z"/>
<path d="M2301 4914 c-12 -20 -21 -40 -19 -44 2 -4 13 12 26 36 27 53 22 58
-7 8z"/>
<path d="M2354 4925 c-9 -14 -15 -28 -12 -30 2 -2 12 9 22 25 21 36 13 40 -10
5z"/>
<path d="M2410 4940 c0 -5 5 -10 10 -10 6 0 10 5 10 10 0 6 -4 10 -10 10 -5 0
-10 -4 -10 -10z"/>
<path d="M2583 4935 c0 -8 4 -15 9 -15 4 0 8 4 8 9 0 6 -4 12 -8 15 -5 3 -9
-1 -9 -9z"/>
<path d="M1330 4925 c-9 -10 -9 -15 -1 -15 6 0 11 5 11 11 0 5 5 7 12 3 7 -4
8 -3 4 4 -9 15 -11 15 -26 -3z"/>
<path d="M1682 4920 c0 -14 2 -19 5 -12 2 6 2 18 0 25 -3 6 -5 1 -5 -13z"/>
<path d="M2375 4900 c-9 -17 -11 -30 -5 -30 5 0 12 11 16 25 3 14 11 22 17 18
6 -3 7 -1 3 5 -10 17 -14 15 -31 -18z"/>
<path d="M2442 4918 c-10 -13 -28 -67 -20 -58 9 8 39 70 34 70 -2 0 -8 -6 -14
-12z"/>
<path d="M1027 4900 c-9 -11 -13 -20 -9 -20 4 0 15 9 25 20 9 11 13 20 9 20
-4 0 -15 -9 -25 -20z"/>
<path d="M1420 4909 c0 -5 5 -7 10 -4 6 3 10 8 10 11 0 2 -4 4 -10 4 -5 0 -10
-5 -10 -11z"/>
<path d="M1705 4910 c-3 -6 1 -7 9 -4 18 7 21 14 7 14 -6 0 -13 -4 -16 -10z"/>
<path d="M2157 4913 c-4 -3 -7 -11 -7 -17 0 -6 5 -5 12 2 6 6 9 14 7 17 -3 3
-9 2 -12 -2z"/>
<path d="M2600 4909 c-13 -9 -12 -10 3 -5 9 3 17 2 17 -2 0 -5 7 -17 15 -28
14 -17 14 -15 0 14 -18 37 -15 35 -35 21z"/>
<path d="M1950 4899 c0 -5 5 -7 10 -4 6 3 10 8 10 11 0 2 -4 4 -10 4 -5 0 -10
-5 -10 -11z"/>
<path d="M1176 4884 c-11 -8 -16 -14 -12 -14 5 0 3 -7 -4 -15 -9 -10 -9 -15
-1 -15 6 0 11 4 11 9 0 5 7 17 16 26 21 21 14 27 -10 9z"/>
<path d="M1896 4883 c-6 -14 -5 -15 5 -6 7 7 10 15 7 18 -3 3 -9 -2 -12 -12z"/>
<path d="M2460 4880 c0 -11 2 -20 4 -20 2 0 6 9 9 20 3 11 1 20 -4 20 -5 0 -9
-9 -9 -20z"/>
<path d="M2502 4888 c-15 -15 -15 -35 -2 -43 6 -4 7 1 3 10 -3 10 0 21 8 25 7
5 11 11 8 14 -3 3 -11 0 -17 -6z"/>
<path d="M2550 4870 c-17 -40 -9 -46 12 -10 9 16 13 32 9 35 -5 2 -14 -9 -21
-25z"/>
<path d="M2787 4885 c6 -21 43 -61 43 -48 0 4 5 2 12 -5 27 -27 29 -10 2 20
-20 22 -24 29 -11 25 10 -4 24 -7 31 -7 16 0 96 -68 96 -83 0 -6 -15 2 -32 19
-32 28 -32 28 3 -11 32 -36 55 -69 102 -146 8 -14 21 -45 27 -68 14 -54 24
-48 11 8 -5 23 -28 71 -52 106 -24 36 -44 73 -45 83 -2 9 -23 36 -48 60 -25
23 -40 42 -35 42 6 0 7 5 4 10 -3 6 -11 10 -16 10 -6 0 -7 -4 -4 -10 8 -13 -1
-13 -25 0 -14 7 -23 6 -32 -4 -11 -11 -15 -11 -25 3 -12 14 -12 14 -6 -4z"/>
<path d="M1051 4825 c-36 -36 -62 -67 -60 -70 3 -3 17 7 30 22 14 16 38 39 55
53 24 20 52 62 41 60 -1 -1 -31 -30 -66 -65z"/>
<path d="M1970 4879 c0 -5 5 -7 10 -4 6 3 10 8 10 11 0 2 -4 4 -10 4 -5 0 -10
-5 -10 -11z"/>
<path d="M1270 4869 c0 -5 5 -7 10 -4 6 3 10 8 10 11 0 2 -4 4 -10 4 -5 0 -10
-5 -10 -11z"/>
<path d="M1368 4873 c7 -3 16 -2 19 1 4 3 -2 6 -13 5 -11 0 -14 -3 -6 -6z"/>
<path d="M1588 4853 c-21 -14 -38 -30 -38 -34 0 -5 8 -2 18 6 9 7 28 23 42 34
35 28 22 25 -22 -6z"/>
<path d="M2136 4849 c-3 -17 -5 -52 -5 -78 1 -36 3 -30 10 29 8 79 6 102 -5
49z"/>
<path d="M2182 4860 c0 -14 2 -19 5 -12 2 6 2 18 0 25 -3 6 -5 1 -5 -13z"/>
<path d="M2758 4873 c7 -3 16 -2 19 1 4 3 -2 6 -13 5 -11 0 -14 -3 -6 -6z"/>
<path d="M2979 4804 c46 -48 70 -81 67 -90 -3 -8 -2 -12 4 -9 12 7 32 -33 53
-105 18 -63 32 -177 17 -145 -6 13 -7 4 -3 -29 4 -32 3 -47 -4 -43 -6 4 -10
-6 -11 -22 0 -16 -6 -48 -12 -71 -20 -73 -4 -54 18 22 31 108 36 163 19 244
-23 105 -68 188 -144 262 -36 34 -67 62 -70 62 -3 0 27 -34 66 -76z"/>
<path d="M1030 4850 c-9 -6 -10 -10 -3 -10 6 0 15 5 18 10 8 12 4 12 -15 0z"/>
<path d="M1340 4845 c-11 -13 -10 -14 4 -9 9 3 16 10 16 15 0 13 -6 11 -20 -6z"/>
<path d="M1219 4833 c-12 -16 -12 -17 2 -6 9 7 20 9 24 5 5 -4 5 -1 1 6 -9 16
-11 15 -27 -5z"/>
<path d="M2565 4839 c-4 -6 -5 -12 -2 -15 2 -3 7 2 10 11 7 17 1 20 -8 4z"/>
<path d="M2660 4841 c0 -6 4 -13 10 -16 6 -3 7 1 4 9 -7 18 -14 21 -14 7z"/>
<path d="M2085 4820 c3 -5 8 -10 11 -10 2 0 4 5 4 10 0 6 -5 10 -11 10 -5 0
-7 -4 -4 -10z"/>
<path d="M2170 4800 c0 -16 2 -30 4 -30 2 0 6 14 8 30 3 17 1 30 -4 30 -4 0
-8 -13 -8 -30z"/>
<path d="M2456 4819 c7 -11 -20 -121 -55 -227 -29 -87 -74 -184 -128 -272
l-28 -44 27 19 c15 11 28 26 28 33 0 6 4 12 8 12 4 0 19 25 32 55 13 30 28 55
33 55 4 0 6 4 3 9 -4 5 -3 11 2 13 9 3 42 93 74 198 22 76 23 79 13 105 -7 19
-7 19 7 1 13 -16 15 -16 15 -2 0 9 -5 16 -10 16 -5 0 -7 8 -5 18 3 11 0 19 -8
19 -7 0 -11 -4 -8 -8z"/>
<path d="M2597 4816 c-7 -17 20 -30 29 -14 5 7 2 8 -6 3 -10 -6 -12 -4 -7 8 3
10 2 17 -2 17 -5 0 -11 -6 -14 -14z"/>
<path d="M2642 4810 c0 -14 2 -19 5 -12 2 6 2 18 0 25 -3 6 -5 1 -5 -13z"/>
<path d="M1196 4805 c4 -8 11 -15 16 -15 6 0 5 6 -2 15 -7 8 -14 15 -16 15 -2
0 -1 -7 2 -15z"/>
<path d="M1366 4811 c-4 -5 3 -7 14 -4 23 6 26 13 6 13 -8 0 -17 -4 -20 -9z"/>
<path d="M1486 4804 c-5 -14 -4 -15 9 -4 17 14 19 20 6 20 -5 0 -12 -7 -15
-16z"/>
<path d="M2855 4810 l-20 -9 20 -1 c11 -2 23 -2 28 -1 4 0 7 -7 7 -16 0 -15 2
-16 10 -3 5 9 5 19 -2 27 -12 15 -15 15 -43 3z"/>
<path d="M980 4795 c-11 -13 -10 -14 4 -9 9 3 16 10 16 15 0 13 -6 11 -20 -6z"/>
<path d="M1330 4800 c0 -5 5 -10 10 -10 6 0 10 5 10 10 0 6 -4 10 -10 10 -5 0
-10 -4 -10 -10z"/>
<path d="M1510 4795 c-11 -13 -10 -14 4 -9 9 3 16 10 16 15 0 13 -6 11 -20 -6z"/>
<path d="M2016 4793 c-6 -14 -5 -15 5 -6 7 7 10 15 7 18 -3 3 -9 -2 -12 -12z"/>
<path d="M1826 4783 c-6 -14 -5 -15 5 -6 7 7 10 15 7 18 -3 3 -9 -2 -12 -12z"/>
<path d="M1048 4765 c-6 -13 -14 -22 -18 -20 -5 3 -10 -1 -13 -9 -4 -9 0 -12
12 -9 9 2 22 18 28 34 14 35 7 39 -9 4z"/>
<path d="M1165 4770 c-3 -5 -2 -10 4 -10 5 0 13 5 16 10 3 6 2 10 -4 10 -5 0
-13 -4 -16 -10z"/>
<path d="M1395 4770 c27 -12 43 -12 25 0 -8 5 -22 9 -30 9 -10 0 -8 -3 5 -9z"/>
<path d="M2497 4745 c-9 -20 -17 -42 -17 -49 0 -7 -9 -33 -19 -57 -27 -63 -36
-97 -22 -84 11 11 83 216 78 222 -2 1 -11 -13 -20 -32z"/>
<path d="M2620 4773 c0 -7 9 -22 20 -33 26 -26 26 -13 0 20 -11 14 -20 19 -20
13z"/>
<path d="M2688 4773 c6 -2 18 -2 25 0 6 3 1 5 -13 5 -14 0 -19 -2 -12 -5z"/>
<path d="M2914 4765 c3 -8 1 -15 -4 -15 -6 0 -10 -7 -10 -15 0 -8 7 -15 15
-15 8 0 15 -8 15 -19 0 -10 14 -32 30 -49 17 -18 30 -37 30 -44 0 -6 3 -9 6
-6 8 8 -30 80 -42 79 -5 -1 -10 7 -10 16 -1 10 -7 32 -14 48 -18 47 4 17 47
-65 51 -95 66 -147 67 -237 0 -29 4 -53 8 -53 4 0 8 -21 8 -47 0 -37 -3 -44
-11 -33 -8 11 -9 4 -5 -27 4 -29 2 -43 -5 -43 -7 0 -9 -10 -7 -25 3 -13 1 -22
-3 -19 -5 3 -9 -4 -9 -15 0 -30 -1 -34 -12 -54 -17 -33 -18 -13 -3 64 7 41 17
115 21 164 3 50 9 94 12 99 3 5 0 6 -6 2 -8 -5 -11 -1 -10 11 1 10 -1 43 -6
73 -7 47 -10 51 -17 32 -5 -14 -5 -31 0 -41 11 -19 26 -161 18 -161 -3 0 -10
33 -17 73 -6 39 -15 81 -21 92 -5 11 -7 12 -5 3 5 -19 -16 -42 -29 -30 -5 4
-5 2 -1 -5 4 -7 13 -10 20 -7 9 3 13 -7 14 -37 1 -23 7 -48 13 -55 9 -11 8
-14 -1 -14 -10 0 -10 -3 -1 -14 9 -11 10 -25 2 -50 -5 -20 -5 -36 -1 -36 9 0
5 -71 -7 -120 -3 -14 -6 -36 -7 -48 -1 -13 -9 -28 -19 -33 -9 -6 -17 -14 -17
-19 0 -15 -33 -49 -42 -44 -4 3 -8 -2 -8 -11 0 -8 -7 -18 -15 -21 -8 -4 -13
-10 -10 -14 3 -5 1 -11 -5 -15 -5 -3 -10 1 -10 9 0 10 -6 13 -17 9 -13 -5 -15
-2 -11 15 4 12 2 22 -3 22 -5 0 -9 -5 -9 -11 0 -8 -5 -8 -15 1 -19 15 -10 30
17 30 32 0 13 12 -29 19 -25 4 -39 12 -41 24 -3 14 2 17 21 15 14 -2 32 -10
41 -17 11 -10 16 -10 16 -2 0 7 -18 20 -40 30 -31 14 -37 20 -27 30 9 9 9 14
-3 21 -18 11 -30 -5 -30 -43 0 -38 14 -61 77 -131 29 -33 53 -64 53 -69 0 -5
9 2 20 16 11 14 20 30 20 35 0 5 7 16 17 23 15 13 15 12 3 -10 l-12 -24 32 23
c29 21 31 24 15 30 -17 6 -17 7 -2 13 9 3 26 21 37 39 11 18 20 28 20 22 0 -6
-10 -24 -22 -39 -14 -18 -17 -26 -7 -23 28 9 86 148 99 238 21 151 -17 358
-82 440 -13 16 -31 40 -41 54 -19 28 -43 35 -33 11z"/>
<path d="M1203 4756 c-9 -11 -9 -15 0 -19 7 -3 14 3 14 14 2 22 2 22 -14 5z"/>
<path d="M1327 4763 c-4 -3 -7 -11 -7 -17 0 -6 5 -5 12 2 15 15 31 16 22 0 -4
-7 -3 -8 5 -4 6 4 9 12 6 17 -7 11 -29 12 -38 2z"/>
<path d="M967 4752 c1 -3 -4 -13 -13 -23 -9 -10 -14 -23 -12 -30 2 -7 12 0 22
16 11 16 14 30 8 35 -5 4 -7 5 -5 2z"/>
<path d="M2057 4753 c-4 -3 -7 -11 -7 -17 0 -6 5 -5 12 2 6 6 9 14 7 17 -3 3
-9 2 -12 -2z"/>
<path d="M2157 4747 c-4 -10 -7 -28 -6 -40 0 -21 1 -21 10 2 5 14 8 32 7 40
-3 13 -5 13 -11 -2z"/>
<path d="M2237 4718 c-3 -18 -2 -36 2 -40 3 -4 7 11 9 33 3 47 -4 52 -11 7z"/>
<path d="M2509 4683 c-12 -38 -30 -84 -39 -103 -24 -48 -35 -88 -22 -75 11 10
71 146 77 175 2 8 6 27 10 43 14 53 -4 26 -26 -40z"/>
<path d="M1288 4733 c7 -3 16 -2 19 1 4 3 -2 6 -13 5 -11 0 -14 -3 -6 -6z"/>
<path d="M2352 4712 c1 -19 5 -29 10 -24 5 5 5 19 -1 33 -8 22 -9 22 -9 -9z"/>
<path d="M1761 4714 c0 -11 3 -14 6 -6 3 7 2 16 -1 19 -3 4 -6 -2 -5 -13z"/>
<path d="M2380 4719 c0 -5 5 -7 10 -4 6 3 10 8 10 11 0 2 -4 4 -10 4 -5 0 -10
-5 -10 -11z"/>
<path d="M1170 4711 c0 -5 9 -7 20 -4 11 3 20 7 20 9 0 2 -9 4 -20 4 -11 0
-20 -4 -20 -9z"/>
<path d="M2201 4704 c0 -11 3 -14 6 -6 3 7 2 16 -1 19 -3 4 -6 -2 -5 -13z"/>
<path d="M981 4696 c-9 -11 -9 -16 0 -22 8 -4 9 -3 5 4 -4 7 -1 12 8 12 9 0
16 5 16 10 0 14 -16 12 -29 -4z"/>
<path d="M1027 4685 c-37 -33 -24 -32 15 0 16 14 26 25 21 25 -4 0 -21 -12
-36 -25z"/>
<path d="M1096 4693 c-6 -14 -5 -15 5 -6 7 7 10 15 7 18 -3 3 -9 -2 -12 -12z"/>
<path d="M1137 4696 c-3 -8 2 -16 14 -19 23 -6 24 -1 5 18 -12 12 -15 12 -19
1z"/>
<path d="M1350 4700 c-8 -5 -10 -10 -5 -10 6 0 17 5 25 10 8 5 11 10 5 10 -5
0 -17 -5 -25 -10z"/>
<path d="M2116 4693 c-6 -14 -5 -15 5 -6 7 7 10 15 7 18 -3 3 -9 -2 -12 -12z"/>
<path d="M2314 4694 c-4 -10 -9 -22 -11 -26 -2 -5 0 -8 5 -8 10 0 24 41 17 48
-3 3 -8 -4 -11 -14z"/>
<path d="M914 4684 c-4 -10 -9 -22 -11 -26 -2 -5 0 -8 6 -8 11 0 26 39 17 47
-3 3 -9 -3 -12 -13z"/>
<path d="M3050 4681 c0 -6 4 -13 10 -16 6 -3 7 1 4 9 -7 18 -14 21 -14 7z"/>
<path d="M820 4640 c-12 -16 -18 -30 -13 -30 5 0 17 14 26 30 10 17 16 30 13
30 -2 0 -14 -13 -26 -30z"/>
<path d="M1046 4655 c-3 -8 -1 -15 4 -15 6 0 10 7 10 15 0 8 -2 15 -4 15 -2 0
-6 -7 -10 -15z"/>
<path d="M1091 4648 c-14 -23 -14 -23 8 -4 22 20 25 26 13 26 -4 0 -13 -10
-21 -22z"/>
<path d="M1340 4666 c0 -2 7 -7 16 -10 8 -3 12 -2 9 4 -6 10 -25 14 -25 6z"/>
<path d="M2136 4654 c-5 -14 -4 -15 9 -4 17 14 19 20 6 20 -5 0 -12 -7 -15
-16z"/>
<path d="M2350 4626 c0 -74 -76 -240 -143 -313 -11 -13 -17 -23 -13 -23 15 0
77 77 105 130 48 92 83 232 61 245 -6 4 -10 -11 -10 -39z"/>
<path d="M921 4626 l-24 -31 28 27 c16 15 27 29 24 31 -2 3 -15 -10 -28 -27z"/>
<path d="M1268 4653 c7 -3 16 -2 19 1 4 3 -2 6 -13 5 -11 0 -14 -3 -6 -6z"/>
<path d="M2930 4640 c8 -5 20 -10 25 -10 6 0 3 5 -5 10 -8 5 -19 10 -25 10 -5
0 -3 -5 5 -10z"/>
<path d="M865 4630 c-17 -8 -17 -9 7 -7 15 1 24 5 22 9 -3 4 -6 8 -7 7 -1 0
-11 -4 -22 -9z"/>
<path d="M1177 4633 c-3 -5 5 -8 18 -8 13 0 21 3 18 8 -2 4 -10 7 -18 7 -8 0
-16 -3 -18 -7z"/>
<path d="M2275 4590 c-4 -22 -11 -38 -16 -34 -5 3 -9 1 -9 -5 0 -5 4 -12 10
-16 5 -3 14 14 21 37 6 24 13 46 16 51 2 4 0 7 -6 7 -5 0 -12 -18 -16 -40z"/>
<path d="M2777 4590 c3 -25 9 -63 14 -85 6 -34 7 -30 6 27 -1 38 -5 68 -9 68
-3 0 -9 8 -11 18 -3 9 -3 -3 0 -28z"/>
<path d="M2955 4599 c8 -25 26 -42 35 -32 3 3 -1 8 -8 10 -6 3 -10 8 -8 11 2
4 -3 13 -11 21 -13 12 -14 11 -8 -10z"/>
<path d="M850 4600 c0 -6 7 -10 15 -10 8 0 15 2 15 4 0 2 -7 6 -15 10 -8 3
-15 1 -15 -4z"/>
<path d="M1178 4583 c7 -3 16 -2 19 1 4 3 -2 6 -13 5 -11 0 -14 -3 -6 -6z"/>
<path d="M850 4570 c-9 -6 -10 -10 -3 -10 6 0 15 5 18 10 8 12 4 12 -15 0z"/>
<path d="M2298 4537 c-40 -77 -59 -121 -50 -112 15 15 75 135 70 140 -2 2 -11
-10 -20 -28z"/>
<path d="M880 4545 c-7 -9 -11 -17 -9 -20 3 -2 10 5 17 15 14 24 10 26 -8 5z"/>
<path d="M790 4535 c-7 -9 -8 -15 -2 -15 5 0 12 7 16 15 3 8 4 15 2 15 -2 0
-9 -7 -16 -15z"/>
<path d="M1240 4535 c7 -8 17 -15 22 -15 6 0 5 7 -2 15 -7 8 -17 15 -22 15 -6
0 -5 -7 2 -15z"/>
<path d="M1698 4543 c7 -3 16 -2 19 1 4 3 -2 6 -13 5 -11 0 -14 -3 -6 -6z"/>
<path d="M1340 4530 c0 -5 5 -10 11 -10 5 0 7 5 4 10 -3 6 -8 10 -11 10 -2 0
-4 -4 -4 -10z"/>
<path d="M2413 4498 c-7 -24 -37 -80 -67 -125 -31 -46 -51 -83 -46 -83 16 0
136 194 137 223 1 40 -11 33 -24 -15z"/>
<path d="M3091 4535 c1 -19 18 -51 18 -35 0 8 -4 22 -9 30 -5 8 -9 11 -9 5z"/>
<path d="M916 4515 c-3 -8 -1 -15 4 -15 6 0 10 7 10 15 0 8 -2 15 -4 15 -2 0
-6 -7 -10 -15z"/>
<path d="M970 4520 c-8 -5 -10 -10 -5 -10 6 0 17 5 25 10 8 5 11 10 5 10 -5 0
-17 -5 -25 -10z"/>
<path d="M1460 4520 c0 -6 7 -10 15 -10 8 0 15 2 15 4 0 2 -7 6 -15 10 -8 3
-15 1 -15 -4z"/>
<path d="M2232 4508 c-7 -7 -11 -23 -11 -37 l2 -26 4 25 c3 13 12 30 21 37 10
7 12 13 7 13 -6 0 -16 -5 -23 -12z"/>
<path d="M1020 4500 c-9 -6 -10 -10 -3 -10 6 0 15 5 18 10 8 12 4 12 -15 0z"/>
<path d="M1230 4500 c0 -5 7 -10 16 -10 8 0 12 5 9 10 -3 6 -10 10 -16 10 -5
0 -9 -4 -9 -10z"/>
<path d="M1070 4480 c-8 -5 -12 -11 -9 -14 3 -3 14 1 25 9 21 16 8 20 -16 5z"/>
<path d="M2931 4474 c0 -11 3 -14 6 -6 3 7 2 16 -1 19 -3 4 -6 -2 -5 -13z"/>
<path d="M945 4470 c-3 -6 1 -7 9 -4 18 7 21 14 7 14 -6 0 -13 -4 -16 -10z"/>
<path d="M1135 4466 c-11 -8 -24 -12 -31 -9 -6 2 -14 -2 -17 -10 -4 -10 1 -13
19 -9 13 2 24 8 24 13 0 5 9 9 20 9 11 0 20 5 20 10 0 14 -13 12 -35 -4z"/>
<path d="M740 4459 c0 -5 5 -7 10 -4 6 3 10 8 10 11 0 2 -4 4 -10 4 -5 0 -10
-5 -10 -11z"/>
<path d="M1006 4460 c-13 -4 -16 -9 -8 -14 7 -4 19 -3 28 2 21 12 5 22 -20 12z"/>
<path d="M1290 4460 c-8 -5 -12 -12 -9 -15 4 -3 12 1 19 10 14 17 11 19 -10 5z"/>
<path d="M2794 4415 c1 -31 13 -73 31 -112 30 -62 54 -88 34 -36 -5 14 -7 33
-5 40 4 9 1 11 -6 7 -8 -5 -9 -2 -5 10 4 9 3 15 -1 12 -12 -7 -35 61 -26 75 4
7 3 9 -4 5 -6 -4 -12 5 -15 21 -3 16 -4 6 -3 -22z"/>
<path d="M967 4433 c-4 -3 -7 -11 -7 -17 0 -6 5 -5 12 2 6 6 9 14 7 17 -3 3
-9 2 -12 -2z"/>
<path d="M1178 4433 c7 -3 16 -2 19 1 4 3 -2 6 -13 5 -11 0 -14 -3 -6 -6z"/>
<path d="M2197 4425 c-4 -8 -1 -17 6 -21 7 -4 9 -4 5 1 -4 4 -3 14 3 22 7 8 8
13 1 13 -5 0 -12 -7 -15 -15z"/>
<path d="M2930 4431 c0 -5 5 -13 10 -16 6 -3 10 -2 10 4 0 5 -4 13 -10 16 -5
3 -10 2 -10 -4z"/>
<path d="M845 4420 c3 -5 8 -10 11 -10 2 0 4 5 4 10 0 6 -5 10 -11 10 -5 0 -7
-4 -4 -10z"/>
<path d="M897 4408 c-7 -25 -1 -38 16 -37 9 0 9 2 0 6 -8 3 -11 14 -7 29 3 13
4 24 1 24 -2 0 -7 -10 -10 -22z"/>
<path d="M2906 4415 c-3 -8 -1 -15 4 -15 6 0 10 7 10 15 0 8 -2 15 -4 15 -2 0
-6 -7 -10 -15z"/>
<path d="M740 4399 c0 -5 5 -7 10 -4 6 3 10 8 10 11 0 2 -4 4 -10 4 -5 0 -10
-5 -10 -11z"/>
<path d="M2936 4375 c3 -16 6 -38 7 -47 1 -9 4 -15 8 -12 4 2 9 -5 12 -16 3
-11 1 -22 -3 -25 -4 -3 -6 -15 -3 -28 4 -18 3 -19 -7 -7 -9 12 -10 9 -5 -15 9
-43 25 -55 24 -19 0 16 2 57 4 92 5 56 3 61 -10 50 -14 -11 -15 -8 -9 22 5 23
4 30 -2 21 -8 -11 -10 -11 -15 0 -3 8 -4 1 -1 -16z"/>
<path d="M1015 4380 c-3 -6 1 -7 9 -4 18 7 21 14 7 14 -6 0 -13 -4 -16 -10z"/>
<path d="M2900 4375 c0 -8 5 -15 10 -15 6 0 10 7 10 15 0 8 -4 15 -10 15 -5 0
-10 -7 -10 -15z"/>
<path d="M800 4354 c-24 -48 -24 -50 -1 -21 13 15 21 32 19 38 -2 6 -10 -2
-18 -17z"/>
<path d="M1147 4374 c-8 -8 1 -24 12 -24 4 0 8 7 8 15 0 16 -9 20 -20 9z"/>
<path d="M1180 4366 c0 -2 9 -6 20 -9 11 -3 20 -1 20 4 0 5 -9 9 -20 9 -11 0
-20 -2 -20 -4z"/>
<path d="M2171 4344 c0 -11 3 -14 6 -6 3 7 2 16 -1 19 -3 4 -6 -2 -5 -13z"/>
<path d="M946 4335 c-25 -19 -17 -19 25 0 24 10 28 14 14 14 -11 0 -29 -6 -39
-14z"/>
<path d="M1060 4340 c-9 -6 -10 -10 -3 -10 6 0 15 5 18 10 8 12 4 12 -15 0z"/>
<path d="M2911 4334 c0 -11 3 -14 6 -6 3 7 2 16 -1 19 -3 4 -6 -2 -5 -13z"/>
<path d="M1004 4304 c-18 -14 -18 -14 6 -3 31 14 36 19 24 19 -6 0 -19 -7 -30
-16z"/>
<path d="M1065 4300 c-3 -5 -1 -10 4 -10 6 0 11 5 11 10 0 6 -2 10 -4 10 -3 0
-8 -4 -11 -10z"/>
<path d="M755 4290 c-3 -5 -2 -10 4 -10 5 0 13 5 16 10 3 6 2 10 -4 10 -5 0
-13 -4 -16 -10z"/>
<path d="M835 4290 c-3 -6 1 -7 9 -4 18 7 21 14 7 14 -6 0 -13 -4 -16 -10z"/>
<path d="M2322 4284 c-7 -8 -8 -14 -3 -14 10 0 25 19 20 25 -2 1 -10 -3 -17
-11z"/>
<path d="M2584 4286 c-6 -6 -13 -25 -16 -41 -6 -27 -5 -28 8 -11 7 10 11 22 9
27 -3 4 0 11 6 15 9 5 10 -2 6 -24 -4 -19 -2 -32 3 -32 12 0 13 50 2 66 -5 9
-10 9 -18 0z"/>
<path d="M1200 4280 c-13 -8 -12 -10 3 -10 9 0 17 5 17 10 0 12 -1 12 -20 0z"/>
<path d="M2413 4275 c0 -8 4 -15 9 -15 4 0 8 7 8 15 0 8 -4 15 -8 15 -5 0 -9
-7 -9 -15z"/>
<path d="M2470 4280 c0 -5 -8 -10 -17 -13 -10 -2 8 -3 40 -3 54 0 69 7 47 21
-5 3 -10 2 -10 -4 0 -6 -11 -6 -30 -1 -17 5 -30 5 -30 0z"/>
<path d="M2270 4270 c0 -7 -3 -11 -6 -8 -3 4 -18 -6 -32 -21 -15 -14 -46 -39
-70 -55 -23 -16 -40 -31 -37 -34 3 -3 19 4 35 16 16 12 32 22 35 22 13 0 88
80 82 87 -4 3 -7 0 -7 -7z"/>
<path d="M735 4259 c-4 -6 -5 -12 -2 -15 2 -3 7 2 10 11 7 17 1 20 -8 4z"/>
<path d="M796 4260 c-11 -3 -15 -9 -10 -13 10 -6 42 9 34 16 -3 3 -14 1 -24
-3z"/>
<path d="M2330 4251 c0 -6 4 -13 10 -16 6 -3 7 1 4 9 -7 18 -14 21 -14 7z"/>
<path d="M2632 4240 c-7 -11 -8 -20 -3 -20 9 0 24 30 18 36 -1 2 -8 -6 -15
-16z"/>
<path d="M2766 4245 c-3 -8 -1 -15 4 -15 6 0 10 7 10 15 0 8 -2 15 -4 15 -2 0
-6 -7 -10 -15z"/>
<path d="M2793 4245 c0 -8 4 -15 9 -15 4 0 8 7 8 15 0 8 -4 15 -8 15 -5 0 -9
-7 -9 -15z"/>
<path d="M2360 4246 c0 -2 9 -6 20 -9 11 -3 18 -1 14 4 -5 9 -34 13 -34 5z"/>
<path d="M2520 4240 c0 -5 5 -10 10 -10 6 0 10 5 10 10 0 6 -4 10 -10 10 -5 0
-10 -4 -10 -10z"/>
<path d="M880 4230 c-9 -6 -10 -10 -3 -10 6 0 15 5 18 10 8 12 4 12 -15 0z"/>
<path d="M1010 4230 c11 -7 60 -2 60 6 0 2 -16 3 -35 2 -20 -1 -31 -4 -25 -8z"/>
<path d="M1138 4233 c7 -3 16 -2 19 1 4 3 -2 6 -13 5 -11 0 -14 -3 -6 -6z"/>
<path d="M2740 4228 c0 -9 5 -20 10 -23 13 -8 13 5 0 25 -8 13 -10 13 -10 -2z"/>
<path d="M820 4226 c0 -2 7 -6 15 -10 8 -3 15 -1 15 4 0 6 -7 10 -15 10 -8 0
-15 -2 -15 -4z"/>
<path d="M960 4220 c0 -5 7 -7 15 -4 8 4 15 8 15 10 0 2 -7 4 -15 4 -8 0 -15
-4 -15 -10z"/>
<path d="M2920 4209 c0 -40 -6 -102 -14 -134 -6 -25 -4 -23 12 10 13 27 16 46
10 58 -5 10 -5 17 0 17 5 0 8 14 6 32 -5 38 -14 50 -14 17z"/>
<path d="M806 4202 c-3 -5 1 -9 9 -9 8 0 12 4 9 9 -3 4 -7 8 -9 8 -2 0 -6 -4
-9 -8z"/>
<path d="M2611 4193 c-1 -12 -9 -24 -18 -26 -17 -4 -17 -5 0 -6 19 -1 32 21
24 41 -3 7 -6 3 -6 -9z"/>
<path d="M846 4184 c-24 -24 -19 -30 7 -8 12 10 24 20 26 21 2 2 -1 3 -7 3 -6
0 -18 -7 -26 -16z"/>
<path d="M742 4170 c0 -14 2 -19 5 -12 2 6 2 18 0 25 -3 6 -5 1 -5 -13z"/>
<path d="M2251 4165 c-60 -23 -107 -53 -96 -63 2 -3 10 0 17 5 43 32 218 83
218 63 0 -4 10 -10 23 -13 l22 -6 -24 20 c-31 25 -80 23 -160 -6z"/>
<path d="M765 4169 c-11 -17 1 -21 15 -4 8 9 8 15 2 15 -6 0 -14 -5 -17 -11z"/>
<path d="M2641 4171 c-8 -5 -9 -11 -3 -15 5 -3 12 1 16 9 6 17 6 18 -13 6z"/>
<path d="M2803 4153 c9 -2 25 -2 35 0 9 3 1 5 -18 5 -19 0 -27 -2 -17 -5z"/>
<path d="M1012 4119 c-8 -12 -8 -19 -2 -19 5 0 10 4 10 9 0 5 8 11 18 13 15 3
15 4 1 10 -9 4 -20 -1 -27 -13z"/>
<path d="M2070 4131 c0 -5 9 -7 20 -4 11 3 20 7 20 9 0 2 -9 4 -20 4 -11 0
-20 -4 -20 -9z"/>
<path d="M2232 4107 c-40 -17 -68 -33 -61 -36 14 -4 89 20 89 29 0 4 6 7 13 8
109 14 105 14 121 -10 12 -17 16 -19 16 -6 0 9 -5 20 -11 24 -8 4 -7 9 2 15 9
5 -7 9 -41 8 -40 0 -76 -9 -128 -32z"/>
<path d="M2860 4114 c0 -8 5 -12 10 -9 6 4 8 11 5 16 -9 14 -15 11 -15 -7z"/>
<path d="M2956 4113 c-6 -14 -5 -15 5 -6 7 7 10 15 7 18 -3 3 -9 -2 -12 -12z"/>
<path d="M726 4095 c-3 -8 -1 -15 4 -15 6 0 10 7 10 15 0 8 -2 15 -4 15 -2 0
-6 -7 -10 -15z"/>
<path d="M811 4091 c-11 -7 -9 -10 8 -16 13 -4 25 -4 28 -1 4 3 1 6 -6 6 -7 0
-9 5 -6 10 8 12 -5 13 -24 1z"/>
<path d="M918 4093 c7 -3 16 -2 19 1 4 3 -2 6 -13 5 -11 0 -14 -3 -6 -6z"/>
<path d="M2350 4070 c0 -18 6 -33 15 -36 21 -8 65 4 65 17 0 8 -4 8 -12 2 -7
-5 -20 -9 -28 -9 -18 1 -26 36 -8 36 10 0 9 3 -2 10 -24 16 -30 12 -30 -20z"/>
<path d="M2847 4076 c-4 -10 -5 -21 -2 -24 9 -9 17 6 13 25 -3 17 -4 17 -11
-1z"/>
<path d="M1058 4073 c7 -3 16 -2 19 1 4 3 -2 6 -13 5 -11 0 -14 -3 -6 -6z"/>
<path d="M706 4045 c-5 -13 -2 -14 17 -4 32 17 33 19 10 19 -12 0 -23 -7 -27
-15z"/>
<path d="M2443 4047 c4 -10 7 -21 7 -23 0 -2 6 -4 14 -4 7 0 19 -7 26 -15 9
-10 9 -15 1 -15 -6 0 -11 -4 -11 -10 0 -15 17 -12 23 4 3 8 -10 28 -30 47 -23
22 -34 28 -30 16z"/>
<path d="M2248 4043 c7 -3 16 -2 19 1 4 3 -2 6 -13 5 -11 0 -14 -3 -6 -6z"/>
<path d="M1015 4030 c-14 -7 -8 -8 20 -3 22 3 42 7 44 9 9 8 -45 2 -64 -6z"/>
<path d="M746 4021 c-4 -5 3 -7 14 -4 23 6 26 13 6 13 -8 0 -17 -4 -20 -9z"/>
<path d="M845 4020 c-8 -13 5 -13 25 0 13 8 13 10 -2 10 -9 0 -20 -4 -23 -10z"/>
<path d="M2291 4018 c-1 -10 3 -18 8 -18 5 0 17 -3 27 -7 16 -6 17 -5 4 9 -8
9 -18 14 -22 12 -3 -2 -9 2 -11 8 -3 8 -6 6 -6 -4z"/>
<path d="M783 4003 c-21 -8 -15 -22 7 -16 11 3 20 9 20 14 0 10 -8 10 -27 2z"/>
<path d="M1198 4003 c7 -3 16 -2 19 1 4 3 -2 6 -13 5 -11 0 -14 -3 -6 -6z"/>
<path d="M2426 3989 c4 -7 -40 -19 -89 -25 -26 -4 -70 -34 -49 -34 21 0 138
41 156 55 18 13 18 14 -2 12 -11 0 -19 -4 -16 -8z"/>
<path d="M2242 3970 c0 -14 2 -19 5 -12 2 6 2 18 0 25 -3 6 -5 1 -5 -13z"/>
<path d="M2270 3960 c-13 -8 -12 -10 3 -10 9 0 17 5 17 10 0 12 -1 12 -20 0z"/>
<path d="M746 3947 c-14 -10 -15 -14 -4 -14 7 0 19 6 26 14 7 7 9 13 4 13 -4
0 -16 -6 -26 -13z"/>
<path d="M805 3940 c-3 -5 1 -10 9 -10 9 0 16 5 16 10 0 6 -4 10 -9 10 -6 0
-13 -4 -16 -10z"/>
<path d="M2090 3930 c0 -5 5 -10 11 -10 5 0 7 5 4 10 -3 6 -8 10 -11 10 -2 0
-4 -4 -4 -10z"/>
<path d="M780 3920 c0 -6 7 -10 15 -10 8 0 15 2 15 4 0 2 -7 6 -15 10 -8 3
-15 1 -15 -4z"/>
<path d="M1700 3911 c0 -5 5 -13 10 -16 6 -3 10 -2 10 4 0 5 -4 13 -10 16 -5
3 -10 2 -10 -4z"/>
<path d="M2485 3909 c-4 -6 -5 -12 -2 -15 2 -3 7 2 10 11 7 17 1 20 -8 4z"/>
<path d="M838 3903 c6 -2 18 -2 25 0 6 3 1 5 -13 5 -14 0 -19 -2 -12 -5z"/>
<path d="M750 3880 c-14 -11 -20 -20 -15 -20 6 0 21 9 35 20 14 11 21 20 15
20 -5 0 -21 -9 -35 -20z"/>
<path d="M2375 3890 c-3 -6 1 -7 9 -4 18 7 21 14 7 14 -6 0 -13 -4 -16 -10z"/>
<path d="M2806 3891 c-17 -6 -17 -8 -4 -14 10 -3 19 0 22 9 3 8 4 14 3 13 -1
0 -11 -4 -21 -8z"/>
<path d="M2854 3893 c4 -7 9 -21 11 -31 1 -9 18 -56 36 -102 19 -47 33 -94 33
-105 -1 -27 -14 -55 -25 -55 -6 0 -19 -9 -31 -20 -12 -11 -40 -26 -62 -33 -37
-12 -41 -17 -38 -42 2 -16 11 -35 20 -41 10 -7 14 -16 10 -20 -4 -4 2 -15 14
-25 11 -11 16 -19 10 -19 -6 0 -14 5 -17 10 -3 6 -12 10 -18 10 -8 0 -8 -3 1
-9 7 -4 12 -12 11 -17 -2 -15 13 -54 21 -54 4 0 10 -7 13 -14 4 -11 1 -13 -11
-9 -15 6 -15 4 -4 -10 15 -18 7 -41 -10 -31 -7 4 -8 2 -4 -5 4 -6 12 -8 18 -5
6 4 8 -2 3 -17 -7 -23 -6 -24 8 -4 20 27 19 181 -1 177 -10 -2 -10 2 -3 16 8
15 6 24 -9 40 -10 11 -24 22 -31 24 -7 2 -9 10 -5 17 5 7 14 10 22 7 8 -3 41
10 74 30 71 42 81 66 55 133 -10 25 -30 79 -44 118 -15 40 -33 78 -40 85 -11
10 -12 10 -7 1z m-18 -440 c-7 -7 -26 7 -26 19 0 6 6 6 15 -2 9 -7 13 -15 11
-17z"/>
<path d="M814 3876 c-10 -8 -17 -17 -14 -19 3 -3 16 3 29 14 27 22 15 26 -15
5z"/>
<path d="M800 3830 c0 -5 -7 -10 -15 -10 -8 0 -15 -5 -15 -10 0 -7 6 -7 20 0
18 10 28 30 15 30 -3 0 -5 -4 -5 -10z"/>
<path d="M2810 3831 c0 -6 4 -13 10 -16 6 -3 7 1 4 9 -7 18 -14 21 -14 7z"/>
<path d="M1692 3790 c0 -14 2 -19 5 -12 2 6 2 18 0 25 -3 6 -5 1 -5 -13z"/>
<path d="M1450 3792 c0 -6 -17 -16 -37 -23 -21 -6 -43 -15 -49 -20 -6 -5 -13
-7 -15 -4 -3 2 -5 -6 -5 -18 0 -24 19 -48 52 -65 29 -15 37 -50 15 -62 -19
-10 -91 6 -102 23 -4 5 -10 4 -13 -2 -13 -21 -61 -12 -85 15 -24 27 -43 26
-21 -1 21 -25 66 -45 102 -45 18 0 47 -4 63 -9 34 -9 73 1 81 23 6 16 -18 74
-27 66 -10 -9 -39 28 -41 52 -2 18 2 24 22 26 30 4 78 38 67 48 -4 4 -7 2 -7
-4z"/>
<path d="M1490 3770 c-14 -11 -20 -20 -15 -19 13 0 50 28 44 33 -2 3 -15 -4
-29 -14z"/>
<path d="M720 3760 c0 -6 4 -9 9 -6 5 4 12 1 14 -4 3 -6 4 -5 3 2 -3 15 -26
23 -26 8z"/>
<path d="M2455 3760 c-3 -5 1 -10 9 -10 9 0 16 5 16 10 0 6 -4 10 -9 10 -6 0
-13 -4 -16 -10z"/>
<path d="M2865 3760 c3 -5 11 -10 16 -10 6 0 7 5 4 10 -3 6 -11 10 -16 10 -6
0 -7 -4 -4 -10z"/>
<path d="M1486 3723 c-6 -14 -5 -15 5 -6 7 7 10 15 7 18 -3 3 -9 -2 -12 -12z"/>
<path d="M1525 3720 c-3 -10 -19 -30 -36 -44 -29 -25 -38 -46 -19 -46 6 0 9 3
8 8 -1 4 12 23 30 42 18 19 32 40 32 47 0 19 -8 16 -15 -7z"/>
<path d="M2322 3728 c5 -15 28 -18 29 -3 0 6 -7 12 -17 13 -10 3 -15 -1 -12
-10z"/>
<path d="M2425 3730 c3 -5 8 -10 11 -10 2 0 4 5 4 10 0 6 -5 10 -11 10 -5 0
-7 -4 -4 -10z"/>
<path d="M1417 3723 c-4 -3 -7 -11 -7 -17 0 -6 5 -5 12 2 6 6 9 14 7 17 -3 3
-9 2 -12 -2z"/>
<path d="M1711 3714 c0 -11 3 -14 6 -6 3 7 2 16 -1 19 -3 4 -6 -2 -5 -13z"/>
<path d="M2465 3720 c-3 -5 -1 -10 4 -10 6 0 11 5 11 10 0 6 -2 10 -4 10 -3 0
-8 -4 -11 -10z"/>
<path d="M2616 3715 c4 -8 8 -15 10 -15 2 0 4 7 4 15 0 8 -4 15 -10 15 -5 0
-7 -7 -4 -15z"/>
<path d="M1086 3712 c-11 -18 39 -105 80 -141 52 -46 101 -68 116 -53 9 9 9
15 0 24 -10 10 -15 10 -22 -2 -7 -10 -10 -11 -10 -2 0 6 -7 12 -16 12 -8 0
-12 5 -9 10 3 6 -1 10 -10 10 -10 0 -13 5 -9 12 4 7 3 8 -4 4 -21 -13 -55 19
-82 78 -15 33 -30 54 -34 48z"/>
<path d="M1540 3684 c-8 -20 -29 -49 -48 -64 -20 -16 -27 -27 -17 -27 8 0 15
4 15 9 0 4 9 8 19 8 11 0 23 4 26 10 4 6 -1 7 -12 3 -13 -5 -11 1 10 26 15 18
27 41 27 52 0 27 -4 24 -20 -17z"/>
<path d="M2285 3700 c-3 -6 1 -7 9 -4 18 7 21 14 7 14 -6 0 -13 -4 -16 -10z"/>
<path d="M2510 3700 c-9 -6 -10 -10 -3 -10 6 0 15 5 18 10 8 12 4 12 -15 0z"/>
<path d="M1201 3684 c0 -11 3 -14 6 -6 3 7 2 16 -1 19 -3 4 -6 -2 -5 -13z"/>
<path d="M865 3680 c-3 -5 -1 -10 4 -10 6 0 11 5 11 10 0 6 -2 10 -4 10 -3 0
-8 -4 -11 -10z"/>
<path d="M2595 3679 c-4 -6 -4 -13 -1 -16 3 -4 6 -1 6 6 0 8 8 10 23 6 17 -5
19 -4 7 4 -19 14 -27 14 -35 0z"/>
<path d="M1042 3664 c-7 -8 -9 -14 -4 -14 9 0 57 -91 54 -102 -1 -5 3 -8 9 -8
5 0 7 -5 3 -12 -4 -6 -3 -9 2 -5 5 3 25 -10 43 -29 19 -19 43 -36 53 -40 10
-3 18 -10 18 -15 0 -5 3 -8 8 -7 4 0 25 -7 46 -16 52 -23 112 -33 102 -18 -4
7 -22 12 -41 12 -19 0 -36 4 -39 9 -3 5 -30 23 -59 39 -72 41 -125 96 -156
164 -22 48 -28 54 -39 42z"/>
<path d="M2850 3650 c8 -5 20 -10 25 -10 6 0 3 5 -5 10 -8 5 -19 10 -25 10 -5
0 -3 -5 5 -10z"/>
<path d="M2550 3631 c0 -28 21 -72 31 -65 5 3 9 1 9 -4 0 -5 11 -12 25 -14 17
-4 25 -1 25 8 0 14 17 19 58 15 15 -1 21 2 17 8 -4 7 7 11 29 11 19 0 39 -6
43 -14 5 -8 15 -11 28 -6 18 6 16 9 -14 25 -41 21 -122 16 -150 -9 -26 -24
-68 -7 -73 30 -4 32 -28 45 -28 15z"/>
<path d="M1680 3631 c0 -5 5 -13 10 -16 6 -3 10 -2 10 4 0 5 -4 13 -10 16 -5
3 -10 2 -10 -4z"/>
<path d="M776 3613 c-6 -14 -5 -15 5 -6 7 7 10 15 7 18 -3 3 -9 -2 -12 -12z"/>
<path d="M1750 3620 c0 -5 5 -10 10 -10 6 0 10 5 10 10 0 6 -4 10 -10 10 -5 0
-10 -4 -10 -10z"/>
<path d="M1696 3574 c-4 -9 -4 -19 -1 -22 2 -3 7 3 11 12 4 9 4 19 1 22 -2 3
-7 -3 -11 -12z"/>
<path d="M1761 3564 c0 -11 3 -14 6 -6 3 7 2 16 -1 19 -3 4 -6 -2 -5 -13z"/>
<path d="M765 3559 c-4 -6 -5 -12 -2 -15 2 -3 7 2 10 11 7 17 1 20 -8 4z"/>
<path d="M1445 3560 c-3 -5 -2 -10 4 -10 5 0 13 5 16 10 3 6 2 10 -4 10 -5 0
-13 -4 -16 -10z"/>
<path d="M1557 3550 c-3 -11 -1 -20 4 -20 5 0 9 9 9 20 0 11 -2 20 -4 20 -2 0
-6 -9 -9 -20z"/>
<path d="M1811 3554 c0 -11 3 -14 6 -6 3 7 2 16 -1 19 -3 4 -6 -2 -5 -13z"/>
<path d="M1300 3549 c0 -12 48 -19 72 -10 19 7 16 9 -24 12 -27 2 -48 1 -48
-2z"/>
<path d="M1414 3529 c0 -22 9 -24 25 -5 9 11 7 15 -7 18 -12 4 -18 -1 -18 -13z"/>
<path d="M1490 3512 c0 -17 -3 -39 -7 -49 -6 -16 -5 -16 8 -3 25 25 30 50 14
66 -13 14 -15 12 -15 -14z"/>
<path d="M1711 3524 c0 -11 3 -14 6 -6 3 7 2 16 -1 19 -3 4 -6 -2 -5 -13z"/>
<path d="M1760 3525 c0 -8 5 -15 10 -15 6 0 10 7 10 15 0 8 -4 15 -10 15 -5 0
-10 -7 -10 -15z"/>
<path d="M1861 3524 c0 -11 -4 -24 -8 -28 -4 -3 -8 -17 -9 -29 -2 -15 2 -12
12 12 8 18 13 41 11 50 -3 11 -5 10 -6 -5z"/>
<path d="M1820 3520 c0 -5 5 -10 11 -10 5 0 7 5 4 10 -3 6 -8 10 -11 10 -2 0
-4 -4 -4 -10z"/>
<path d="M1893 3505 c0 -30 14 -42 30 -26 9 9 8 10 -7 5 -15 -6 -17 -3 -12 14
4 11 3 23 -2 26 -5 3 -9 -6 -9 -19z"/>
<path d="M1310 3490 c-12 -8 -11 -10 8 -10 12 0 22 5 22 10 0 13 -11 13 -30 0z"/>
<path d="M1566 3483 c-6 -14 -5 -15 5 -6 7 7 10 15 7 18 -3 3 -9 -2 -12 -12z"/>
<path d="M1755 3479 c-4 -6 -5 -12 -2 -15 2 -3 7 2 10 11 7 17 1 20 -8 4z"/>
<path d="M2655 3469 c-11 -16 -1 -19 13 -3 7 8 8 14 3 14 -5 0 -13 -5 -16 -11z"/>
<path d="M1956 3455 c-3 -9 -6 -22 -5 -28 0 -7 5 -1 10 12 5 13 8 26 5 28 -2
2 -6 -3 -10 -12z"/>
<path d="M1702 3444 c-7 -8 -8 -14 -3 -14 10 0 25 19 20 25 -2 1 -10 -3 -17
-11z"/>
<path d="M1001 3434 c0 -11 3 -14 6 -6 3 7 2 16 -1 19 -3 4 -6 -2 -5 -13z"/>
<path d="M1767 3430 c-3 -11 -1 -20 4 -20 5 0 9 9 9 20 0 11 -2 20 -4 20 -2 0
-6 -9 -9 -20z"/>
<path d="M1810 3434 c0 -8 5 -12 10 -9 6 4 8 11 5 16 -9 14 -15 11 -15 -7z"/>
<path d="M2521 3427 c-8 -10 -7 -18 2 -31 10 -14 12 -13 12 14 0 35 1 34 -14
17z"/>
<path d="M2553 3419 c-2 -23 3 -25 10 -4 4 8 3 16 -1 19 -4 3 -9 -4 -9 -15z"/>
<path d="M1445 3420 c-3 -6 1 -7 9 -4 18 7 21 14 7 14 -6 0 -13 -4 -16 -10z"/>
<path d="M1730 3420 c0 -5 5 -10 11 -10 5 0 7 5 4 10 -3 6 -8 10 -11 10 -2 0
-4 -4 -4 -10z"/>
<path d="M1880 3421 c0 -6 5 -13 11 -17 6 -3 9 -17 6 -30 -6 -32 -1 -30 18 7
15 28 15 30 -2 27 -10 -2 -17 2 -15 10 1 6 -2 12 -8 12 -5 0 -10 -4 -10 -9z"/>
<path d="M1823 3405 c-15 -16 -16 -25 -5 -25 4 0 13 9 20 20 14 23 3 26 -15 5z"/>
<path d="M2033 3393 c-12 -13 -19 -23 -14 -23 10 0 46 39 40 43 -2 2 -14 -7
-26 -20z"/>
<path d="M2735 3409 c-4 -6 -5 -12 -2 -15 2 -3 7 2 10 11 7 17 1 20 -8 4z"/>
<path d="M2450 3399 c0 -5 5 -7 10 -4 6 3 10 8 10 11 0 2 -4 4 -10 4 -5 0 -10
-5 -10 -11z"/>
<path d="M2756 3393 c-6 -14 -5 -15 5 -6 7 7 10 15 7 18 -3 3 -9 -2 -12 -12z"/>
<path d="M1934 3375 c-9 -14 -15 -27 -13 -30 3 -2 12 10 21 26 21 36 15 39 -8
4z"/>
<path d="M2693 3378 c-2 -16 1 -18 10 -9 7 7 8 14 1 21 -6 6 -10 2 -11 -12z"/>
<path d="M1050 3381 c0 -6 4 -13 10 -16 6 -3 7 1 4 9 -7 18 -14 21 -14 7z"/>
<path d="M1775 3369 c-4 -6 -5 -12 -2 -15 2 -3 7 2 10 11 7 17 1 20 -8 4z"/>
<path d="M1834 3368 c-4 -7 -14 -23 -22 -35 -8 -13 -10 -23 -6 -23 11 0 47 61
40 67 -2 2 -7 -2 -12 -9z"/>
<path d="M2380 3376 c0 -2 7 -7 16 -10 8 -3 12 -2 9 4 -6 10 -25 14 -25 6z"/>
<path d="M2802 3349 c-3 -49 -20 -58 -92 -48 -36 5 -89 9 -117 10 -29 1 -53 6
-53 11 0 6 -6 6 -15 -2 -8 -6 -20 -8 -27 -4 -9 5 -10 4 -3 -4 6 -6 42 -14 81
-17 39 -3 82 -8 95 -11 13 -3 40 -6 59 -7 27 -2 35 -7 40 -26 5 -21 7 -20 23
18 10 23 17 55 14 73 -3 26 -4 28 -5 7z"/>
<path d="M1717 3346 c-4 -10 -5 -21 -2 -24 9 -9 17 6 13 25 -3 17 -4 17 -11
-1z"/>
<path d="M2376 3345 c-3 -8 -1 -15 4 -15 6 0 10 7 10 15 0 8 -2 15 -4 15 -2 0
-6 -7 -10 -15z"/>
<path d="M2725 3346 c11 -8 24 -12 28 -9 11 7 -12 23 -32 23 -11 0 -9 -4 4
-14z"/>
<path d="M1887 3319 c-10 -11 -16 -23 -13 -26 8 -8 38 25 34 37 -2 6 -11 1
-21 -11z"/>
<path d="M2456 3310 c-17 -6 -18 -7 -3 -13 9 -3 19 -2 23 4 9 15 2 18 -20 9z"/>
<path d="M1789 3283 c-13 -16 -12 -17 4 -4 9 7 17 15 17 17 0 8 -8 3 -21 -13z"/>
<path d="M1536 3257 c3 -10 9 -15 12 -12 3 3 0 11 -7 18 -10 9 -11 8 -5 -6z"/>
<path d="M2596 3245 c4 -8 8 -15 10 -15 2 0 4 7 4 15 0 8 -4 15 -10 15 -5 0
-7 -7 -4 -15z"/>
<path d="M1715 3240 c-3 -5 -1 -10 4 -10 6 0 11 5 11 10 0 6 -2 10 -4 10 -3 0
-8 -4 -11 -10z"/>
<path d="M2620 3234 c0 -15 42 -29 62 -21 7 3 3 6 -10 6 -13 1 -21 5 -18 10 3
5 -3 11 -14 14 -13 3 -20 0 -20 -9z"/>
<path d="M2795 3239 c-11 -16 -1 -19 13 -3 7 8 8 14 3 14 -5 0 -13 -5 -16 -11z"/>
<path d="M1670 3236 c0 -2 7 -7 16 -10 8 -3 12 -2 9 4 -6 10 -25 14 -25 6z"/>
<path d="M862 3210 c0 -14 2 -19 5 -12 2 6 2 18 0 25 -3 6 -5 1 -5 -13z"/>
<path d="M1546 3217 c3 -10 9 -15 12 -12 3 3 0 11 -7 18 -10 9 -11 8 -5 -6z"/>
<path d="M2735 3210 c-17 -7 -17 -9 -2 -9 9 -1 17 -5 17 -11 0 -9 -17 -15 -70
-23 -16 -3 -11 -5 15 -6 39 -1 40 -14 0 -24 -18 -4 -18 -5 3 -6 23 -1 29 -15
11 -27 -6 -3 -8 -17 -4 -32 4 -16 1 -28 -7 -33 -10 -6 -10 -11 -1 -20 9 -9 14
-1 23 32 7 24 15 49 18 54 7 10 31 93 32 108 0 9 -9 8 -35 -3z"/>
<path d="M1312 3170 c0 -14 2 -19 5 -12 2 6 2 18 0 25 -3 6 -5 1 -5 -13z"/>
<path d="M1784 3164 c-18 -14 -18 -15 4 -4 12 6 22 13 22 15 0 8 -5 6 -26 -11z"/>
<path d="M1715 3150 c4 -6 11 -8 16 -5 14 9 11 15 -7 15 -8 0 -12 -5 -9 -10z"/>
<path d="M1322 3120 c0 -14 2 -19 5 -12 2 6 2 18 0 25 -3 6 -5 1 -5 -13z"/>
<path d="M850 3095 c-4 -37 2 -80 11 -83 5 -2 9 -10 9 -17 0 -14 7 -23 84
-112 24 -28 48 -58 53 -65 4 -7 32 -24 60 -37 l52 -24 -25 -23 c-26 -25 -84
-138 -84 -166 0 -9 -5 -18 -11 -20 -7 -2 -13 -19 -16 -38 -2 -19 -10 -44 -19
-57 -8 -13 -12 -28 -9 -33 6 -9 -4 -54 -22 -100 -3 -8 -7 -19 -8 -25 -1 -5 -3
-12 -4 -15 -1 -3 -4 -18 -6 -35 -8 -63 -16 -95 -23 -91 -4 2 -8 -23 -9 -55 -1
-32 0 -59 2 -59 2 0 9 26 15 58 29 144 74 315 106 402 20 52 38 105 41 118 3
12 9 22 14 22 5 0 9 9 9 20 0 11 5 20 10 20 6 0 10 7 10 15 0 8 5 15 10 15 6
0 10 6 10 14 0 8 5 16 11 18 21 7 -4 37 -51 59 -33 16 -46 27 -42 38 3 9 1 12
-6 7 -7 -4 -15 0 -19 11 -4 10 -18 30 -32 44 -52 53 -77 90 -51 74 6 -4 7 1 3
11 -4 11 -8 13 -11 6 -7 -21 -22 -13 -22 11 0 13 -4 27 -9 33 -5 5 -14 25 -19
44 -7 23 -11 28 -12 15z"/>
<path d="M2750 3100 c0 -5 5 -10 10 -10 6 0 10 5 10 10 0 6 -4 10 -10 10 -5 0
-10 -4 -10 -10z"/>
<path d="M1336 3046 c8 -53 -3 -139 -17 -131 -12 8 -11 -6 1 -25 8 -13 10 -12
10 3 0 9 5 17 10 17 13 0 13 167 0 175 -6 4 -8 -10 -4 -39z"/>
<path d="M2679 3088 c-7 -25 -7 -48 0 -48 15 0 26 23 13 28 -7 2 -10 8 -6 13
3 5 3 9 0 9 -3 0 -6 -1 -7 -2z"/>
<path d="M1617 3060 c10 -11 19 -20 21 -20 1 0 -2 9 -8 20 -6 11 -15 20 -20
20 -6 0 -2 -9 7 -20z"/>
<path d="M2655 3020 c-18 -7 -18 -8 5 -11 31 -5 41 -45 13 -52 -10 -3 -5 -4
11 -3 22 2 30 8 31 24 1 12 -4 22 -11 22 -7 0 -17 6 -21 14 -5 9 -15 11 -28 6z"/>
<path d="M1640 3006 c0 -2 9 -6 20 -9 11 -3 18 -1 14 4 -5 9 -34 13 -34 5z"/>
<path d="M2070 3000 c-9 -6 -10 -10 -3 -10 6 0 15 5 18 10 8 12 4 12 -15 0z"/>
<path d="M2646 2985 c4 -8 11 -15 16 -15 6 0 5 6 -2 15 -7 8 -14 15 -16 15 -2
0 -1 -7 2 -15z"/>
<path d="M2078 2963 c6 -2 18 -2 25 0 6 3 1 5 -13 5 -14 0 -19 -2 -12 -5z"/>
<path d="M1640 2930 c6 -11 20 -25 33 -31 l22 -11 -22 21 c-13 12 -23 26 -23
31 0 6 -5 10 -10 10 -7 0 -7 -6 0 -20z"/>
<path d="M2692 2931 c0 -9 -3 -25 -7 -35 -7 -15 -5 -17 6 -11 11 6 12 5 2 -6
-7 -7 -13 -23 -13 -34 0 -12 -10 -30 -22 -41 -12 -10 -18 -13 -14 -6 4 7 1 12
-9 12 -9 0 -14 -4 -10 -9 7 -13 -33 -34 -51 -27 -8 3 -14 0 -14 -6 0 -9 -3 -9
-11 -1 -7 7 -20 8 -33 4 -11 -5 -30 -6 -41 -4 -43 9 -60 8 -67 -2 -6 -7 -10
-7 -15 1 -6 7 -16 6 -33 -3 -22 -11 -8 -13 100 -12 149 0 202 16 238 69 27 41
39 83 25 87 -6 2 -9 12 -6 22 3 11 -1 18 -11 18 -8 0 -14 -7 -14 -16z m25 -53
c-3 -8 -6 -5 -6 6 -1 11 2 17 5 13 3 -3 4 -12 1 -19z"/>
<path d="M2673 2925 c0 -8 4 -12 9 -9 5 3 6 10 3 15 -9 13 -12 11 -12 -6z"/>
<path d="M2395 2909 l-20 -21 28 13 c15 7 27 16 27 21 0 13 -14 8 -35 -13z"/>
<path d="M1747 2909 c7 -7 15 -10 18 -7 3 3 -2 9 -12 12 -14 6 -15 5 -6 -5z"/>
<path d="M1724 2865 c27 -25 42 -33 32 -16 -4 5 0 12 6 14 7 3 3 6 -9 6 -12 1
-25 6 -28 11 -3 6 -11 10 -17 10 -6 0 1 -11 16 -25z"/>
<path d="M1787 2879 c7 -7 15 -10 18 -7 3 3 -2 9 -12 12 -14 6 -15 5 -6 -5z"/>
<path d="M1275 2860 c3 -5 11 -10 16 -10 6 0 7 5 4 10 -3 6 -11 10 -16 10 -6
0 -7 -4 -4 -10z"/>
<path d="M1808 2833 c7 -3 16 -2 19 1 4 3 -2 6 -13 5 -11 0 -14 -3 -6 -6z"/>
<path d="M1185 2777 c-6 -7 -10 -24 -10 -39 1 -16 -3 -28 -7 -28 -4 0 -8 -10
-8 -22 0 -42 -44 -168 -57 -163 -8 3 -11 -5 -8 -23 2 -15 9 -90 16 -167 11
-145 30 -249 54 -294 15 -30 85 -100 85 -85 0 5 -11 19 -25 32 -58 56 -96 204
-100 392 -2 69 4 107 31 206 32 118 51 204 43 204 -2 -1 -9 -6 -14 -13z"/>
<path d="M1730 2766 c0 -8 4 -17 9 -20 5 -4 7 3 4 14 -6 23 -13 26 -13 6z"/>
<path d="M2225 2760 c-17 -6 -15 -8 12 -12 18 -2 34 0 36 6 9 23 15 -3 35
-134 18 -127 21 -242 7 -292 -5 -18 -4 -20 4 -8 11 15 14 3 14 -50 0 -33 -16
-99 -23 -95 -4 2 -12 -14 -19 -36 -7 -24 -16 -37 -23 -33 -7 4 -8 3 -4 -5 4
-6 -2 -28 -13 -47 -25 -43 -26 -51 -4 -33 15 12 16 12 10 -6 -5 -14 0 -10 17
10 31 37 56 87 56 112 0 10 -12 -8 -28 -39 -15 -32 -30 -58 -35 -58 -4 0 0 15
8 33 8 17 20 44 26 60 6 15 17 27 24 27 24 0 29 189 12 443 -1 15 -4 27 -7 27
-3 0 -5 17 -6 38 0 54 -24 97 -54 98 -14 1 -34 -2 -45 -6z"/>
<path d="M1865 2740 c22 -11 44 -20 49 -20 6 0 -6 9 -27 20 -20 11 -42 20 -49
20 -7 0 5 -9 27 -20z"/>
<path d="M2345 2728 c-4 -9 5 -32 20 -54 15 -22 39 -64 55 -94 25 -51 140
-315 140 -324 0 -2 7 -20 16 -41 23 -55 27 -37 5 26 -11 29 -17 58 -14 63 4 5
1 6 -5 2 -10 -6 -14 7 -12 39 1 3 -8 17 -20 32 -11 14 -20 32 -20 39 0 7 -11
33 -23 57 -23 42 -38 80 -41 102 -1 6 -14 29 -29 52 -15 24 -27 45 -27 48 0 2
-9 19 -20 37 -15 25 -21 28 -25 16z"/>
<path d="M1014 2695 c-14 -19 -32 -35 -40 -35 -7 0 -11 -6 -8 -14 3 -9 -23
-44 -68 -90 -40 -41 -74 -80 -76 -86 -1 -6 -14 -23 -27 -38 -14 -15 -25 -30
-25 -34 0 -4 -17 -19 -37 -33 -25 -16 -32 -25 -20 -25 10 0 37 21 60 46 23 26
71 78 107 116 76 82 183 228 166 228 -3 0 -17 -16 -32 -35z"/>
<path d="M1705 2720 c-3 -5 -1 -10 4 -10 6 0 11 5 11 10 0 6 -2 10 -4 10 -3 0
-8 -4 -11 -10z"/>
<path d="M2172 2700 c0 -14 2 -19 5 -12 2 6 2 18 0 25 -3 6 -5 1 -5 -13z"/>
<path d="M2420 2700 c0 -5 5 -10 11 -10 5 0 7 5 4 10 -3 6 -8 10 -11 10 -2 0
-4 -4 -4 -10z"/>
<path d="M1765 2680 c3 -5 11 -10 16 -10 6 0 7 5 4 10 -3 6 -11 10 -16 10 -6
0 -7 -4 -4 -10z"/>
<path d="M1862 2676 c7 -8 15 -12 17 -11 5 6 -10 25 -20 25 -5 0 -4 -6 3 -14z"/>
<path d="M2440 2671 c0 -19 224 -251 263 -272 32 -18 17 6 -28 45 -25 22 -45
46 -45 53 0 7 -3 12 -7 11 -16 -3 -154 142 -147 154 4 7 4 10 -1 6 -4 -4 -14
-3 -22 3 -9 9 -13 8 -13 0z"/>
<path d="M2130 2650 c0 -5 5 -10 10 -10 6 0 10 5 10 10 0 6 -4 10 -10 10 -5 0
-10 -4 -10 -10z"/>
<path d="M2360 2630 c6 -11 13 -20 16 -20 2 0 0 9 -6 20 -6 11 -13 20 -16 20
-2 0 0 -9 6 -20z"/>
<path d="M2380 2596 c0 -3 11 -25 24 -50 14 -26 20 -46 13 -46 -6 0 -3 -6 6
-12 9 -7 51 -94 93 -193 73 -171 115 -255 75 -149 -19 50 -117 279 -165 386
-21 47 -46 82 -46 64z"/>
<path d="M1031 2530 c-41 -96 -121 -413 -107 -427 3 -3 6 2 6 13 0 18 50 215
83 329 8 28 22 68 32 88 10 21 15 40 13 43 -3 2 -15 -18 -27 -46z"/>
<path d="M1286 2533 c-6 -14 -5 -15 5 -6 7 7 10 15 7 18 -3 3 -9 -2 -12 -12z"/>
<path d="M1021 2394 c0 -11 3 -14 6 -6 3 7 2 16 -1 19 -3 4 -6 -2 -5 -13z"/>
<path d="M2740 2386 c0 -2 7 -7 16 -10 8 -3 12 -2 9 4 -6 10 -25 14 -25 6z"/>
<path d="M1660 2364 c0 -8 5 -12 10 -9 6 4 8 11 5 16 -9 14 -15 11 -15 -7z"/>
<path d="M2790 2371 c0 -6 4 -13 10 -16 6 -3 7 1 4 9 -7 18 -14 21 -14 7z"/>
<path d="M2716 2357 c3 -10 9 -15 12 -12 3 3 0 11 -7 18 -10 9 -11 8 -5 -6z"/>
<path d="M2781 2323 c37 -48 78 -80 119 -92 175 -51 340 -110 424 -152 107
-53 141 -59 55 -10 -76 43 -202 93 -374 146 -134 42 -154 52 -186 86 -36 39
-63 54 -38 22z"/>
<path d="M646 2275 c-16 -14 -26 -25 -21 -25 4 0 2 -7 -5 -15 -7 -8 -8 -15 -3
-15 5 0 17 10 27 23 10 12 26 30 34 40 23 26 1 21 -32 -8z"/>
<path d="M2312 2270 c0 -19 2 -27 5 -17 2 9 2 25 0 35 -3 9 -5 1 -5 -18z"/>
<path d="M2870 2290 c-13 -8 -12 -10 3 -10 9 0 17 5 17 10 0 12 -1 12 -20 0z"/>
<path d="M2954 2292 c3 -6 31 -20 62 -32 31 -11 69 -27 86 -36 16 -8 32 -13
34 -11 7 7 -55 41 -106 59 -25 9 -54 19 -64 24 -13 5 -17 4 -12 -4z"/>
<path d="M2870 2226 c0 -2 7 -9 15 -16 9 -7 15 -8 15 -2 0 5 -7 12 -15 16 -8
3 -15 4 -15 2z"/>
<path d="M520 2205 c-11 -13 -10 -14 4 -9 9 3 16 10 16 15 0 13 -6 11 -20 -6z"/>
<path d="M593 2199 c-5 -5 -75 -36 -154 -68 -179 -72 -284 -122 -372 -173 -82
-49 -89 -62 -9 -18 118 67 228 116 477 216 60 24 83 39 74 49 -3 2 -10 0 -16
-6z"/>
<path d="M2941 2189 c11 -11 23 -18 27 -15 3 4 -3 13 -14 21 -28 22 -37 18
-13 -6z"/>
<path d="M310 2145 c-47 -23 -88 -41 -92 -38 -5 2 -8 0 -8 -5 0 -11 -132 -92
-149 -92 -6 0 -11 -4 -11 -9 0 -5 -11 -12 -25 -15 -14 -4 -25 -13 -25 -22 0
-16 0 -16 185 89 185 104 225 128 225 132 0 9 -14 3 -100 -40z"/>
<path d="M2915 2180 c3 -5 8 -10 11 -10 2 0 4 5 4 10 0 6 -5 10 -11 10 -5 0
-7 -4 -4 -10z"/>
<path d="M440 2170 c-9 -6 -10 -10 -3 -10 6 0 15 5 18 10 8 12 4 12 -15 0z"/>
<path d="M2601 2158 c-1 -9 6 -23 14 -31 8 -8 11 -18 7 -22 -4 -5 -1 -5 7 0
10 6 12 2 6 -16 -7 -23 -7 -23 8 -4 13 17 13 21 -2 35 -10 8 -16 21 -13 29 3
8 0 11 -6 7 -6 -3 -13 0 -15 6 -4 8 -6 7 -6 -4z"/>
<path d="M405 2150 c-3 -5 -1 -10 4 -10 6 0 11 5 11 10 0 6 -2 10 -4 10 -3 0
-8 -4 -11 -10z"/>
<path d="M2980 2110 c56 -67 66 -74 74 -53 4 10 4 14 0 10 -4 -4 -24 12 -45
35 -23 25 -34 45 -27 49 5 4 -2 7 -16 7 l-26 0 40 -48z"/>
<path d="M528 2128 c-13 -13 -28 -22 -34 -20 -13 3 -35 -43 -29 -60 3 -7 1
-20 -5 -28 -7 -12 -12 -12 -22 -2 -9 9 -9 12 0 12 7 0 12 4 12 9 0 5 -9 7 -20
4 -20 -5 -20 -7 -4 -24 16 -17 15 -21 -12 -56 -15 -21 -31 -40 -34 -43 -4 -3
-9 -13 -13 -23 -4 -10 -10 -16 -14 -14 -5 3 -9 -6 -10 -20 0 -14 2 -21 7 -17
10 12 171 242 193 277 21 33 15 35 -15 5z m-34 -53 c-4 -8 -11 -15 -16 -15 -6
0 -5 6 2 15 7 8 14 15 16 15 2 0 1 -7 -2 -15z"/>
<path d="M2910 2141 c0 -5 5 -13 10 -16 6 -3 10 -2 10 4 0 5 -4 13 -10 16 -5
3 -10 2 -10 -4z"/>
<path d="M2525 2130 c3 -5 8 -10 11 -10 2 0 4 5 4 10 0 6 -5 10 -11 10 -5 0
-7 -4 -4 -10z"/>
<path d="M908 2067 c-3 -19 -2 -25 4 -19 6 6 8 18 6 28 -3 14 -5 12 -10 -9z"/>
<path d="M2595 2060 c-19 -8 -19 -9 3 -9 12 -1 22 4 22 9 0 6 -1 10 -2 9 -2 0
-12 -4 -23 -9z"/>
<path d="M2747 2049 c7 -7 15 -10 18 -7 3 3 -2 9 -12 12 -14 6 -15 5 -6 -5z"/>
<path d="M2990 2056 c0 -2 8 -10 18 -17 15 -13 16 -12 3 4 -13 16 -21 21 -21
13z"/>
<path d="M785 2027 c-31 -23 -111 -98 -85 -80 39 27 130 103 123 103 -4 0 -21
-11 -38 -23z"/>
<path d="M2497 2033 c3 -7 6 -13 8 -13 2 0 5 6 8 13 3 8 -1 14 -8 14 -7 0 -11
-6 -8 -14z"/>
<path d="M2644 1973 l1 -77 -55 -30 c-30 -17 -62 -32 -70 -33 -66 -9 -85 -20
-116 -68 -51 -76 -217 -295 -265 -347 -8 -10 -37 -55 -63 -100 -26 -46 -51
-90 -56 -98 -72 -118 -109 -180 -121 -205 -16 -32 -15 -55 3 -55 5 0 7 8 3 19
-3 12 0 21 10 25 8 3 15 15 15 26 0 11 5 20 10 20 6 0 10 7 10 15 0 26 23 66
36 61 7 -3 15 2 18 10 3 9 1 12 -4 9 -6 -3 -10 -1 -10 4 0 6 4 11 8 11 5 0 17
15 27 34 11 19 23 32 27 30 5 -3 8 -2 7 3 -4 22 3 41 21 61 11 12 20 26 20 32
0 5 3 10 8 10 4 0 13 14 20 30 8 17 18 27 24 24 7 -4 8 -2 4 4 -7 11 -1 19 50
76 13 15 24 31 24 35 0 5 8 15 17 22 15 12 16 12 10 -3 -4 -12 -2 -15 9 -11
11 4 12 9 4 18 -8 10 -6 19 9 37 11 13 29 34 40 47 12 13 21 30 21 36 0 7 6
15 13 18 8 3 24 26 36 52 13 28 26 43 33 39 6 -4 8 -3 5 3 -4 6 0 14 9 17 8 3
13 10 10 15 -3 5 1 12 10 15 23 9 36 7 29 -4 -7 -11 22 -1 70 24 17 9 37 16
45 16 8 0 24 12 35 27 11 14 25 31 31 37 6 6 9 34 6 64 l-4 52 39 -22 c21 -12
49 -30 62 -40 30 -23 48 -23 30 0 -13 15 -12 16 3 3 10 -7 16 -17 13 -21 -8
-14 51 -58 66 -49 8 4 21 3 29 -3 13 -8 12 -9 -2 -5 -9 3 -19 3 -22 0 -7 -7 3
-13 122 -74 46 -23 85 -46 88 -51 4 -5 13 -7 21 -4 8 3 11 1 8 -4 -6 -9 11
-14 43 -13 7 1 11 -2 8 -5 -9 -8 33 -34 44 -27 6 3 10 2 10 -3 0 -12 50 -45
68 -45 7 0 10 -7 7 -15 -3 -7 -3 -18 0 -22 7 -11 43 1 46 15 1 6 5 19 9 31 7
16 0 30 -31 64 -21 23 -39 49 -39 56 0 8 -6 14 -12 14 -7 1 -31 24 -53 52 -22
28 -55 66 -73 84 -23 22 -29 34 -20 37 8 4 7 6 -4 6 -26 1 -22 -9 18 -54 20
-22 67 -81 105 -131 37 -50 75 -97 84 -104 16 -13 21 -40 7 -40 -5 0 -17 9
-27 20 -19 21 -194 122 -234 135 -18 5 -22 4 -16 -5 5 -9 4 -11 -4 -6 -6 4 -9
11 -6 16 3 5 -25 25 -62 45 -37 19 -110 65 -162 101 -52 36 -100 63 -108 60
-8 -3 -11 -1 -8 4 3 6 -6 15 -20 20 -50 19 -52 16 -51 -67z m236 -63 c8 -5 10
-10 4 -10 -7 0 -22 9 -35 21 -19 16 -20 18 -4 10 11 -6 27 -15 35 -21z m100
-66 c0 -2 -13 2 -30 11 -16 9 -30 18 -30 21 0 2 14 -2 30 -11 17 -9 30 -18 30
-21z m55 -32 c-3 -3 -11 0 -18 7 -9 10 -8 11 6 5 10 -3 15 -9 12 -12z"/>
<path d="M3061 2038 c-1 -21 36 -61 44 -49 2 5 -2 12 -10 15 -9 3 -20 16 -25
28 -7 18 -9 19 -9 6z"/>
<path d="M900 2020 c0 -4 9 -10 20 -13 11 -3 20 -2 20 3 0 4 -9 10 -20 13 -11
3 -20 2 -20 -3z"/>
<path d="M2315 1991 c17 -50 63 -122 88 -140 19 -14 19 -15 2 -28 -11 -7 -15
-13 -9 -13 5 0 17 7 26 14 16 12 15 15 -16 45 -31 30 -86 126 -86 150 0 6 -4
11 -10 11 -5 0 -3 -17 5 -39z"/>
<path d="M2481 1970 c23 -48 33 -60 51 -59 22 2 22 2 2 6 -22 4 -54 60 -54 93
0 11 -6 20 -14 20 -11 0 -7 -15 15 -60z"/>
<path d="M386 2005 c-3 -8 -1 -15 3 -15 5 0 11 7 15 15 3 8 1 15 -3 15 -5 0
-11 -7 -15 -15z"/>
<path d="M841 1999 c-57 -25 -133 -87 -125 -101 5 -7 2 -8 -5 -3 -15 9 -103
-73 -94 -88 4 -6 1 -7 -6 -2 -8 4 -25 -4 -44 -22 -18 -17 -85 -68 -150 -114
-129 -91 -236 -183 -225 -194 4 -4 18 4 31 17 45 45 158 138 168 138 5 0 9 -6
9 -12 1 -9 5 -8 13 2 7 9 28 27 47 40 19 13 37 27 40 30 3 3 19 14 35 24 57
37 145 121 140 134 -2 7 0 10 5 7 6 -4 17 1 26 9 9 9 20 14 25 10 5 -3 8 -1 7
5 -4 16 103 100 119 94 8 -3 12 -12 9 -19 -3 -7 -1 -16 4 -19 6 -4 10 -17 10
-30 0 -36 108 -126 160 -133 13 -2 27 -7 30 -11 10 -15 48 -22 56 -10 10 17
-22 37 -72 45 -24 3 -44 10 -44 15 0 5 -3 8 -7 7 -13 -4 -91 52 -98 70 -4 9
-10 43 -14 74 l-6 57 -44 -20z m-181 -163 c0 -2 -8 -10 -17 -17 -16 -13 -17
-12 -4 4 13 16 21 21 21 13z m457 -72 c-3 -3 -12 -4 -19 -1 -8 3 -5 6 6 6 11
1 17 -2 13 -5z m-557 -18 c0 -2 -7 -7 -16 -10 -8 -3 -12 -2 -9 4 6 10 25 14
25 6z"/>
<path d="M2620 2001 c0 -11 4 -22 9 -25 4 -3 6 6 3 19 -5 30 -12 33 -12 6z"/>
<path d="M2490 2004 c0 -2 8 -19 17 -39 16 -33 33 -46 33 -25 0 6 -5 10 -11
10 -6 0 -9 9 -6 20 3 13 1 18 -6 13 -6 -4 -8 0 -5 9 4 9 0 15 -8 15 -8 0 -14
-2 -14 -3z"/>
<path d="M2207 1968 c-6 -18 -10 -36 -9 -40 1 -5 -3 -8 -9 -8 -5 0 -7 -4 -4
-10 3 -5 -3 -17 -14 -27 -11 -9 -18 -20 -15 -24 8 -14 -89 -189 -104 -189 -12
0 -12 4 3 20 10 11 15 20 11 20 -4 0 0 7 9 16 9 9 13 19 10 23 -4 3 -11 -2
-16 -12 -6 -9 -14 -15 -18 -13 -4 3 -7 -5 -7 -17 1 -15 -4 -21 -14 -19 -12 3
-12 1 -3 -9 9 -9 7 -16 -9 -33 -11 -11 -25 -35 -32 -51 -7 -17 -21 -38 -30
-48 -13 -12 -14 -17 -4 -17 7 0 22 19 32 41 24 50 63 96 72 86 4 -4 2 -7 -4
-7 -6 0 -9 -7 -6 -15 4 -8 1 -15 -5 -15 -6 0 -11 -7 -11 -15 0 -8 -4 -15 -10
-15 -5 0 -10 -4 -10 -10 0 -5 -18 -35 -40 -67 -22 -32 -46 -67 -53 -77 -6 -11
-22 -30 -33 -42 -12 -13 -19 -25 -16 -28 3 -3 0 -6 -7 -6 -7 0 -9 -4 -6 -10
11 -17 19 -11 43 30 13 22 27 38 32 35 6 -3 7 1 4 9 -4 10 -1 16 10 16 10 0
13 6 10 15 -4 8 -2 15 2 15 5 0 15 12 21 28 7 15 24 41 38 57 l26 30 -21 -37
c-11 -21 -16 -38 -12 -38 6 0 17 18 51 84 2 5 -2 6 -10 2 -8 -4 -6 -1 4 7 9 8
17 19 17 25 0 6 33 78 72 159 40 81 72 154 71 161 0 6 2 12 6 12 4 0 7 9 7 20
0 28 -5 25 -19 -12z"/>
<path d="M2830 1986 c0 -2 7 -7 16 -10 8 -3 12 -2 9 4 -6 10 -25 14 -25 6z"/>
<path d="M1548 1973 c7 -3 16 -2 19 1 4 3 -2 6 -13 5 -11 0 -14 -3 -6 -6z"/>
<path d="M1635 1970 c-3 -5 -1 -10 4 -10 6 0 11 5 11 10 0 6 -2 10 -4 10 -3 0
-8 -4 -11 -10z"/>
<path d="M3227 1959 c4 -13 8 -18 11 -10 2 7 -1 18 -6 23 -8 8 -9 4 -5 -13z"/>
<path d="M990 1965 c0 -5 5 -17 10 -25 5 -8 10 -10 10 -5 0 6 -5 17 -10 25 -5
8 -10 11 -10 5z"/>
<path d="M2620 1940 c0 -11 2 -20 4 -20 2 0 6 9 9 20 3 11 1 20 -4 20 -5 0 -9
-9 -9 -20z"/>
<path d="M1170 1939 c0 -5 5 -7 10 -4 6 3 10 8 10 11 0 2 -4 4 -10 4 -5 0 -10
-5 -10 -11z"/>
<path d="M660 1915 c-11 -13 -10 -14 4 -9 9 3 16 10 16 15 0 13 -6 11 -20 -6z"/>
<path d="M1030 1920 c0 -5 5 -10 10 -10 6 0 10 5 10 10 0 6 -4 10 -10 10 -5 0
-10 -4 -10 -10z"/>
<path d="M1260 1927 c0 -5 6 -15 14 -23 8 -7 16 -19 19 -26 2 -7 7 -11 10 -8
3 3 -5 19 -18 35 -13 17 -24 26 -25 22z"/>
<path d="M1647 1875 c3 -33 9 -64 14 -69 12 -13 11 -4 -6 69 l-14 60 6 -60z"/>
<path d="M935 1909 c-4 -5 -4 -13 -1 -16 3 -4 6 0 6 8 0 11 2 11 10 -1 6 -9
10 -10 10 -3 0 17 -17 25 -25 12z"/>
<path d="M1164 1893 c-3 -16 -10 -43 -14 -60 -5 -20 -5 -33 1 -33 5 0 9 3 10
8 0 4 2 14 4 22 13 63 16 90 11 90 -3 0 -8 -12 -12 -27z"/>
<path d="M2285 1910 c-3 -5 -1 -10 4 -10 6 0 11 5 11 10 0 6 -2 10 -4 10 -3 0
-8 -4 -11 -10z"/>
<path d="M1560 1900 c0 -5 5 -10 10 -10 6 0 10 5 10 10 0 6 -4 10 -10 10 -5 0
-10 -4 -10 -10z"/>
<path d="M3225 1900 c-3 -5 -1 -10 4 -10 6 0 11 5 11 10 0 6 -2 10 -4 10 -3 0
-8 -4 -11 -10z"/>
<path d="M1591 1884 c0 -11 3 -14 6 -6 3 7 2 16 -1 19 -3 4 -6 -2 -5 -13z"/>
<path d="M611 1868 c-14 -23 -14 -23 8 -4 22 20 25 26 13 26 -4 0 -13 -10 -21
-22z"/>
<path d="M1132 1860 c0 -14 2 -19 5 -12 2 6 2 18 0 25 -3 6 -5 1 -5 -13z"/>
<path d="M2225 1835 c-23 -31 -24 -34 -6 -23 12 7 21 18 21 25 0 6 6 13 13 16
6 2 9 7 6 11 -3 4 -19 -10 -34 -29z"/>
<path d="M2115 1815 c-10 -19 -25 -35 -34 -35 -14 0 -14 -2 -1 -10 11 -7 20 1
38 31 13 22 22 42 20 44 -2 2 -12 -11 -23 -30z"/>
<path d="M1110 1831 c0 -6 4 -13 10 -16 6 -3 7 1 4 9 -7 18 -14 21 -14 7z"/>
<path d="M310 1801 c-28 -31 -47 -63 -97 -166 -19 -38 -38 -78 -43 -87 -6 -10
-10 -30 -10 -45 1 -24 3 -22 19 17 26 65 61 140 86 180 40 66 76 130 73 130
-2 0 -14 -13 -28 -29z"/>
<path d="M1602 1816 c7 -8 15 -12 17 -11 5 6 -10 25 -20 25 -5 0 -4 -6 3 -14z"/>
<path d="M1350 1811 c0 -5 5 -13 10 -16 6 -3 10 -2 10 4 0 5 -4 13 -10 16 -5
3 -10 2 -10 -4z"/>
<path d="M1376 1781 c-5 -8 86 -144 138 -206 22 -26 24 -27 19 -8 -3 13 -9 20
-14 17 -5 -2 -11 6 -15 20 -3 13 -12 27 -20 30 -8 3 -14 12 -14 19 0 8 -13 30
-30 48 -16 19 -32 42 -36 52 -3 9 -10 17 -15 17 -6 0 -7 5 -4 10 3 6 4 10 1
10 -3 0 -7 -4 -10 -9z"/>
<path d="M2166 1755 c-15 -19 -21 -32 -14 -30 12 5 52 65 44 65 -2 0 -16 -16
-30 -35z"/>
<path d="M2362 1774 c-7 -8 -8 -14 -3 -14 10 0 25 19 20 25 -2 1 -10 -3 -17
-11z"/>
<path d="M3185 1780 c3 -5 8 -10 11 -10 2 0 4 5 4 10 0 6 -5 10 -11 10 -5 0
-7 -4 -4 -10z"/>
<path d="M1140 1767 c0 -23 10 -33 95 -88 65 -43 86 -59 148 -114 13 -11 40
-33 60 -49 20 -16 34 -34 30 -39 -3 -6 -2 -7 4 -4 5 4 20 -5 31 -18 12 -14 26
-25 32 -25 5 0 10 -7 10 -15 0 -8 5 -15 11 -15 8 0 7 -5 -2 -16 -10 -13 -10
-17 2 -24 8 -6 15 -6 17 0 5 15 22 1 22 -18 1 -16 47 -58 55 -50 2 2 -18 34
-46 70 -67 90 -230 242 -335 313 -47 31 -96 69 -110 83 -20 23 -24 24 -24 9z"/>
<path d="M3411 1734 c0 -11 3 -14 6 -6 3 7 2 16 -1 19 -3 4 -6 -2 -5 -13z"/>
<path d="M406 1732 c-3 -5 1 -9 9 -9 8 0 12 4 9 9 -3 4 -7 8 -9 8 -2 0 -6 -4
-9 -8z"/>
<path d="M2331 1723 c-7 -8 -11 -16 -8 -19 2 -2 10 2 17 11 17 20 9 27 -9 8z"/>
<path d="M376 1694 c-5 -14 -4 -15 9 -4 17 14 19 20 6 20 -5 0 -12 -7 -15 -16z"/>
<path d="M3392 1648 c-7 -41 -8 -137 -4 -273 9 -278 5 -466 -12 -540 -33 -145
-69 -276 -95 -350 -20 -55 -31 -109 -35 -172 -4 -65 -15 -120 -37 -184 -25
-71 -29 -95 -21 -112 10 -21 11 -21 11 6 1 15 5 27 10 27 5 0 7 10 3 22 -3 12
-1 19 4 15 5 -3 10 2 11 11 2 26 13 73 30 125 8 26 13 58 11 72 -3 14 -1 25 4
25 4 0 5 12 2 26 -7 27 14 136 25 129 4 -2 7 4 7 13 2 36 68 267 80 279 7 7
18 13 24 13 7 0 5 6 -4 16 -9 8 -16 19 -16 23 0 12 20 73 32 97 5 12 8 30 5
40 -4 16 -5 16 -6 -3 0 -12 -6 -25 -11 -28 -7 -4 -8 12 -5 47 10 90 11 268 3
268 -4 0 -8 5 -8 11 0 5 5 7 12 3 8 -5 9 0 4 17 -19 62 -19 70 0 63 17 -5 18
-4 2 8 -16 14 -19 63 -4 86 4 7 2 12 -3 12 -7 0 -11 26 -11 65 0 45 4 65 13
65 8 0 7 3 -3 10 -12 7 -12 18 -3 62 6 29 8 57 3 61 -4 4 -12 -20 -18 -55z"/>
<path d="M1345 1691 c-3 -5 -2 -12 3 -15 5 -3 9 1 9 9 0 17 -3 19 -12 6z"/>
<path d="M2295 1680 c-3 -5 -1 -10 4 -10 6 0 11 5 11 10 0 6 -2 10 -4 10 -3 0
-8 -4 -11 -10z"/>
<path d="M338 1673 c7 -3 16 -2 19 1 4 3 -2 6 -13 5 -11 0 -14 -3 -6 -6z"/>
<path d="M295 1640 c-10 -11 -15 -20 -11 -20 11 0 39 30 34 36 -3 2 -13 -5
-23 -16z"/>
<path d="M250 1610 c-6 -11 -8 -20 -6 -20 3 0 10 9 16 20 6 11 8 20 6 20 -3 0
-10 -9 -16 -20z"/>
<path d="M1567 1495 c13 -25 29 -47 34 -51 18 -11 40 25 36 58 l-4 33 -1 -31
c-3 -55 -25 -59 -52 -9 -14 25 -28 45 -32 45 -3 0 5 -20 19 -45z"/>
<path d="M2825 1530 c-3 -6 1 -7 9 -4 18 7 21 14 7 14 -6 0 -13 -4 -16 -10z"/>
<path d="M1410 1510 c0 -5 5 -10 11 -10 5 0 7 5 4 10 -3 6 -8 10 -11 10 -2 0
-4 -4 -4 -10z"/>
<path d="M1217 1499 c7 -7 15 -10 18 -7 3 3 -2 9 -12 12 -14 6 -15 5 -6 -5z"/>
<path d="M245 1489 c-4 -6 -5 -12 -2 -15 2 -3 7 2 10 11 7 17 1 20 -8 4z"/>
<path d="M1995 1478 c-4 -13 -12 -29 -19 -37 -6 -7 -11 -19 -11 -25 -1 -6 -7
-24 -14 -41 -7 -16 -14 -34 -15 -40 -12 -46 -19 -65 -27 -65 -5 0 -8 -3 -7 -7
1 -5 -4 -29 -11 -55 -9 -32 -17 -45 -27 -41 -8 3 -14 1 -14 -5 0 -6 5 -12 10
-14 7 -2 7 -14 -1 -36 -6 -18 -16 -29 -22 -25 -6 4 -7 1 -3 -6 5 -7 5 -29 1
-49 -6 -30 -8 -33 -16 -19 -6 9 -7 23 -3 29 4 7 7 35 7 63 0 27 4 56 9 63 7 8
7 12 -1 12 -7 0 -9 5 -6 10 4 6 3 9 -2 8 -12 -3 -53 21 -53 32 0 6 14 23 32
39 32 28 58 31 58 6 0 -7 7 -19 16 -26 12 -10 10 -3 -5 24 -11 20 -18 44 -15
52 4 10 0 15 -12 15 -9 0 -15 -3 -11 -6 3 -3 -3 -15 -13 -27 -26 -27 -39 -13
-14 15 10 13 15 20 10 15 -5 -4 -19 1 -30 10 -21 18 -21 18 -5 -2 15 -18 15
-21 0 -36 -9 -9 -30 -16 -48 -15 -26 1 -29 -1 -20 -13 10 -12 9 -14 -5 -8 -23
8 -22 5 2 -35 22 -36 26 -53 10 -43 -5 3 -5 -7 1 -25 6 -16 16 -30 22 -30 7 0
7 4 -1 12 -17 17 -15 38 4 38 13 0 14 3 5 14 -8 9 -8 16 -2 20 5 4 12 -2 16
-13 3 -10 15 -21 25 -24 18 -5 20 -14 19 -79 0 -52 -3 -67 -9 -53 -6 13 -7 5
-3 -25 4 -25 7 -63 7 -85 -1 -42 -52 -185 -66 -185 -4 0 -8 -11 -8 -24 0 -13
-6 -39 -14 -57 -7 -19 -17 -43 -21 -54 -4 -11 -9 -36 -11 -55 -2 -19 -8 -36
-14 -38 -5 -2 -10 -8 -10 -13 0 -6 5 -7 10 -4 16 10 12 -7 -7 -28 -17 -19 -17
-20 5 -8 15 8 22 21 22 39 0 34 26 136 44 177 29 64 66 165 101 278 58 191
145 449 161 485 9 19 13 36 11 39 -3 2 -8 -6 -12 -19z m-205 -193 c0 -12 -42
-45 -50 -40 -17 10 -11 25 10 25 11 0 20 5 20 10 0 6 5 10 10 10 6 0 10 -2 10
-5z"/>
<path d="M2060 1487 c0 -7 -14 -35 -31 -61 -16 -27 -29 -55 -27 -64 2 -9 13 3
26 29 13 24 32 59 42 77 16 26 17 32 5 32 -8 0 -15 -6 -15 -13z"/>
<path d="M2815 1490 c3 -5 8 -10 11 -10 2 0 4 5 4 10 0 6 -5 10 -11 10 -5 0
-7 -4 -4 -10z"/>
<path d="M6 1340 c4 -80 8 -177 8 -217 1 -39 5 -75 10 -80 9 -8 2 223 -10 362
-11 126 -16 83 -8 -65z"/>
<path d="M1895 1449 c-4 -6 -5 -12 -2 -15 2 -3 7 2 10 11 7 17 1 20 -8 4z"/>
<path d="M3136 1437 c3 -10 9 -15 12 -12 3 3 0 11 -7 18 -10 9 -11 8 -5 -6z"/>
<path d="M1507 1423 c-3 -3 1 -12 9 -20 8 -9 18 -13 21 -10 3 3 -1 13 -10 21
-8 8 -17 12 -20 9z"/>
<path d="M1620 1400 c0 -5 5 -10 10 -10 6 0 10 5 10 10 0 6 -4 10 -10 10 -5 0
-10 -4 -10 -10z"/>
<path d="M55 1380 c-3 -5 -1 -10 4 -10 6 0 11 5 11 10 0 6 -2 10 -4 10 -3 0
-8 -4 -11 -10z"/>
<path d="M2387 1371 c-4 -17 -3 -21 5 -13 5 5 8 16 6 23 -3 8 -7 3 -11 -10z"/>
<path d="M1640 1371 c0 -6 4 -13 10 -16 6 -3 7 1 4 9 -7 18 -14 21 -14 7z"/>
<path d="M1826 1364 c-5 -14 -4 -15 9 -4 17 14 19 20 6 20 -5 0 -12 -7 -15
-16z"/>
<path d="M3351 1364 c0 -11 3 -14 6 -6 3 7 2 16 -1 19 -3 4 -6 -2 -5 -13z"/>
<path d="M62 1340 c0 -14 2 -19 5 -12 2 6 2 18 0 25 -3 6 -5 1 -5 -13z"/>
<path d="M1507 1329 c7 -7 15 -10 18 -7 3 3 -2 9 -12 12 -14 6 -15 5 -6 -5z"/>
<path d="M1546 1328 c3 -4 15 -8 26 -8 12 0 18 3 14 7 -10 10 -46 11 -40 1z"/>
<path d="M1670 1322 c6 -13 14 -21 18 -18 3 4 -2 14 -12 24 -18 16 -18 16 -6
-6z"/>
<path d="M1720 1315 c0 -8 4 -15 10 -15 5 0 7 7 4 15 -4 8 -8 15 -10 15 -2 0
-4 -7 -4 -15z"/>
<path d="M3020 1291 c0 -6 4 -13 10 -16 6 -3 7 1 4 9 -7 18 -14 21 -14 7z"/>
<path d="M58 1245 c-2 -19 0 -35 4 -35 4 0 8 16 8 35 0 19 -2 35 -4 35 -2 0
-6 -16 -8 -35z"/>
<path d="M1630 1259 c0 -5 5 -7 10 -4 6 3 10 8 10 11 0 2 -4 4 -10 4 -5 0 -10
-5 -10 -11z"/>
<path d="M125 1239 c-4 -6 -5 -12 -2 -15 2 -3 7 2 10 11 7 17 1 20 -8 4z"/>
<path d="M3205 1230 c-3 -6 1 -7 9 -4 18 7 21 14 7 14 -6 0 -13 -4 -16 -10z"/>
<path d="M2335 1219 c-4 -6 -5 -12 -2 -15 2 -3 7 2 10 11 7 17 1 20 -8 4z"/>
<path d="M1425 1209 c-4 -6 -5 -12 -2 -15 2 -3 7 2 10 11 7 17 1 20 -8 4z"/>
<path d="M1661 1215 c1 -19 18 -51 18 -35 0 8 -4 22 -9 30 -5 8 -9 11 -9 5z"/>
<path d="M2900 1206 c0 -8 4 -17 9 -20 5 -4 7 3 4 14 -6 23 -13 26 -13 6z"/>
<path d="M3250 1200 c0 -5 5 -10 11 -10 5 0 7 5 4 10 -3 6 -8 10 -11 10 -2 0
-4 -4 -4 -10z"/>
<path d="M1631 1184 c0 -12 7 -28 17 -35 15 -12 16 -12 6 1 -7 8 -14 24 -17
35 -4 19 -5 19 -6 -1z"/>
<path d="M3323 1185 c0 -7 6 -11 14 -8 7 3 13 6 13 8 0 2 -6 5 -13 8 -8 3 -14
-1 -14 -8z"/>
<path d="M1745 1169 c4 -5 16 -9 27 -9 18 0 20 -4 15 -40 -3 -23 -1 -38 4 -34
12 7 11 71 -1 79 -18 11 -51 14 -45 4z"/>
<path d="M675 1159 c-4 -6 -5 -12 -2 -15 2 -3 7 2 10 11 7 17 1 20 -8 4z"/>
<path d="M180 1129 c0 -5 5 -7 10 -4 6 3 10 8 10 11 0 2 -4 4 -10 4 -5 0 -10
-5 -10 -11z"/>
<path d="M1749 1128 c-8 -18 -3 -45 7 -45 10 0 11 4 3 13 -7 8 -6 13 3 16 9 3
9 6 0 12 -7 4 -13 6 -13 4z"/>
<path d="M2321 1104 c0 -11 3 -14 6 -6 3 7 2 16 -1 19 -3 4 -6 -2 -5 -13z"/>
<path d="M3140 1078 c0 -9 5 -20 11 -23 17 -11 18 -2 3 19 -12 17 -14 17 -14
4z"/>
<path d="M2103 1065 c-3 -9 -3 -18 -1 -21 3 -3 8 4 11 16 6 23 -1 27 -10 5z"/>
<path d="M125 1060 c-3 -5 -1 -10 4 -10 6 0 11 5 11 10 0 6 -2 10 -4 10 -3 0
-8 -4 -11 -10z"/>
<path d="M3200 1061 c0 -5 5 -13 10 -16 6 -3 10 -2 10 4 0 5 -4 13 -10 16 -5
3 -10 2 -10 -4z"/>
<path d="M410 1050 c0 -5 5 -10 10 -10 6 0 10 5 10 10 0 6 -4 10 -10 10 -5 0
-10 -4 -10 -10z"/>
<path d="M1575 1050 c3 -5 8 -10 11 -10 2 0 4 5 4 10 0 6 -5 10 -11 10 -5 0
-7 -4 -4 -10z"/>
<path d="M20 1020 c0 -6 -4 -8 -10 -5 -5 3 -10 1 -10 -4 0 -6 8 -11 18 -12 9
0 12 -3 6 -5 -8 -3 -6 -34 7 -107 10 -56 19 -103 19 -104 0 -1 -7 0 -15 3 -8
4 -15 1 -15 -4 0 -6 8 -13 18 -17 20 -6 47 -78 37 -96 -7 -11 -37 23 -60 68
-8 15 -15 22 -15 15 0 -31 82 -153 95 -140 3 3 -2 13 -11 22 -11 12 -13 21 -7
27 7 7 14 1 21 -19 6 -17 8 -33 5 -36 -3 -2 4 -17 15 -33 10 -15 27 -44 36
-64 9 -20 26 -46 37 -57 34 -37 41 -70 29 -146 -14 -97 -15 -193 -1 -209 6 -8
8 -17 5 -20 -4 -3 1 -13 10 -22 18 -19 20 -8 6 29 -19 50 -21 126 -5 200 16
78 18 199 5 251 -4 17 -9 23 -10 15 -5 -40 -5 -70 0 -70 3 0 7 -16 8 -37 l3
-36 -33 50 c-42 64 -59 98 -104 208 -35 88 -49 153 -61 288 -3 37 -10 70 -14
73 -5 3 -9 0 -9 -6z"/>
<path d="M1615 1020 c3 -5 8 -10 11 -10 2 0 4 5 4 10 0 6 -5 10 -11 10 -5 0
-7 -4 -4 -10z"/>
<path d="M3220 1026 c0 -2 7 -7 16 -10 8 -3 12 -2 9 4 -6 10 -25 14 -25 6z"/>
<path d="M2868 983 c6 -2 18 -2 25 0 6 3 1 5 -13 5 -14 0 -19 -2 -12 -5z"/>
<path d="M3050 970 c0 -5 5 -10 11 -10 5 0 7 5 4 10 -3 6 -8 10 -11 10 -2 0
-4 -4 -4 -10z"/>
<path d="M1850 925 c-6 -15 -13 -32 -16 -36 -3 -5 -3 -9 0 -9 9 0 38 61 32 67
-3 3 -10 -7 -16 -22z"/>
<path d="M131 924 c0 -11 3 -14 6 -6 3 7 2 16 -1 19 -3 4 -6 -2 -5 -13z"/>
<path d="M3208 923 c6 -2 18 -2 25 0 6 3 1 5 -13 5 -14 0 -19 -2 -12 -5z"/>
<path d="M455 910 c-3 -5 -1 -10 4 -10 6 0 11 5 11 10 0 6 -2 10 -4 10 -3 0
-8 -4 -11 -10z"/>
<path d="M709 903 c-13 -16 -12 -17 4 -4 9 7 17 15 17 17 0 8 -8 3 -21 -13z"/>
<path d="M828 913 c7 -3 16 -2 19 1 4 3 -2 6 -13 5 -11 0 -14 -3 -6 -6z"/>
<path d="M1390 910 c-8 -5 -12 -12 -9 -15 4 -3 12 1 19 10 14 17 11 19 -10 5z"/>
<path d="M270 890 c-18 -12 -2 -12 25 0 13 6 15 9 5 9 -8 0 -22 -4 -30 -9z"/>
<path d="M1608 873 c7 -3 16 -2 19 1 4 3 -2 6 -13 5 -11 0 -14 -3 -6 -6z"/>
<path d="M1755 860 c3 -5 8 -10 11 -10 2 0 4 5 4 10 0 6 -5 10 -11 10 -5 0 -7
-4 -4 -10z"/>
<path d="M3078 848 c5 -5 16 -8 23 -6 8 3 3 7 -10 11 -17 4 -21 3 -13 -5z"/>
<path d="M3416 845 c-3 -9 -6 -22 -5 -28 0 -7 5 -1 10 12 5 13 8 26 5 28 -2 2
-6 -3 -10 -12z"/>
<path d="M350 829 c0 -5 5 -7 10 -4 6 3 10 8 10 11 0 2 -4 4 -10 4 -5 0 -10
-5 -10 -11z"/>
<path d="M1440 830 c0 -5 5 -10 11 -10 5 0 7 5 4 10 -3 6 -8 10 -11 10 -2 0
-4 -4 -4 -10z"/>
<path d="M2655 830 c3 -5 8 -10 11 -10 2 0 4 5 4 10 0 6 -5 10 -11 10 -5 0 -7
-4 -4 -10z"/>
<path d="M400 820 c-9 -6 -10 -10 -3 -10 6 0 15 5 18 10 8 12 4 12 -15 0z"/>
<path d="M1480 800 c-13 -8 -12 -10 3 -10 9 0 17 5 17 10 0 12 -1 12 -20 0z"/>
<path d="M1850 800 c0 -5 5 -10 11 -10 5 0 7 5 4 10 -3 6 -8 10 -11 10 -2 0
-4 -4 -4 -10z"/>
<path d="M515 780 c-3 -6 1 -7 9 -4 18 7 21 14 7 14 -6 0 -13 -4 -16 -10z"/>
<path d="M2481 764 c0 -11 3 -14 6 -6 3 7 2 16 -1 19 -3 4 -6 -2 -5 -13z"/>
<path d="M270 760 c-8 -5 -10 -10 -5 -10 6 0 17 5 25 10 8 5 11 10 5 10 -5 0
-17 -5 -25 -10z"/>
<path d="M1776 753 c-6 -14 -5 -15 5 -6 7 7 10 15 7 18 -3 3 -9 -2 -12 -12z"/>
<path d="M2861 763 c-1 -18 13 -23 29 -11 12 8 12 9 -2 5 -9 -3 -19 -1 -22 6
-3 9 -5 9 -5 0z"/>
<path d="M3120 761 c0 -6 4 -13 10 -16 6 -3 7 1 4 9 -7 18 -14 21 -14 7z"/>
<path d="M328 753 c7 -3 16 -2 19 1 4 3 -2 6 -13 5 -11 0 -14 -3 -6 -6z"/>
<path d="M1827 749 c7 -7 15 -10 18 -7 3 3 -2 9 -12 12 -14 6 -15 5 -6 -5z"/>
<path d="M1490 729 c0 -5 5 -7 10 -4 6 3 10 8 10 11 0 2 -4 4 -10 4 -5 0 -10
-5 -10 -11z"/>
<path d="M1547 713 c-10 -9 -9 -23 1 -23 5 0 9 7 9 15 0 17 -1 18 -10 8z"/>
<path d="M1820 701 c0 -6 4 -13 10 -16 6 -3 7 1 4 9 -7 18 -14 21 -14 7z"/>
<path d="M1775 681 c-3 -5 -1 -12 5 -16 5 -3 10 1 10 9 0 18 -6 21 -15 7z"/>
<path d="M295 670 c-3 -5 -1 -10 4 -10 6 0 11 5 11 10 0 6 -2 10 -4 10 -3 0
-8 -4 -11 -10z"/>
<path d="M1806 671 c-4 -5 -2 -12 3 -15 5 -4 12 -2 15 3 4 5 2 12 -3 15 -5 4
-12 2 -15 -3z"/>
<path d="M3381 654 c0 -11 3 -14 6 -6 3 7 2 16 -1 19 -3 4 -6 -2 -5 -13z"/>
<path d="M1388 643 c6 -2 18 -2 25 0 6 3 1 5 -13 5 -14 0 -19 -2 -12 -5z"/>
<path d="M1840 619 c7 -24 6 -28 -3 -20 -10 7 -13 5 -14 -9 -1 -10 5 -20 13
-22 12 -3 12 -6 -1 -25 -17 -25 -54 -30 -73 -11 -15 15 -16 70 0 86 6 6 8 15
4 19 -11 11 -25 -18 -27 -52 -2 -46 1 -59 17 -71 8 -6 14 -16 14 -22 0 -6 5
-14 12 -18 8 -5 9 -2 5 10 -5 12 1 19 19 26 14 6 30 8 35 4 5 -3 9 -2 8 3 -3
19 2 34 10 28 5 -3 13 0 17 6 4 8 3 9 -4 5 -11 -7 -17 6 -13 28 4 17 -11 66
-19 66 -5 0 -5 -14 0 -31z"/>
<path d="M1041 624 c0 -11 3 -14 6 -6 3 7 2 16 -1 19 -3 4 -6 -2 -5 -13z"/>
<path d="M200 621 c0 -6 4 -12 8 -15 5 -3 9 1 9 9 0 8 -4 15 -9 15 -4 0 -8 -4
-8 -9z"/>
<path d="M1776 614 c-11 -28 -6 -54 8 -54 8 0 18 5 21 10 3 6 -1 10 -9 10 -9
0 -16 5 -16 10 0 6 7 10 15 10 19 0 20 16 1 23 -8 3 -17 -1 -20 -9z"/>
<path d="M488 613 c6 -2 18 -2 25 0 6 3 1 5 -13 5 -14 0 -19 -2 -12 -5z"/>
<path d="M698 613 c7 -3 16 -2 19 1 4 3 -2 6 -13 5 -11 0 -14 -3 -6 -6z"/>
<path d="M840 610 c-9 -6 -10 -10 -3 -10 6 0 15 5 18 10 8 12 4 12 -15 0z"/>
<path d="M1638 613 c6 -2 18 -2 25 0 6 3 1 5 -13 5 -14 0 -19 -2 -12 -5z"/>
<path d="M319 591 c11 -7 11 -9 0 -14 -8 -3 -9 -6 -3 -6 6 -1 17 6 24 14 10
13 9 15 -11 15 -17 0 -20 -3 -10 -9z"/>
<path d="M480 580 c-23 -7 -23 -8 -3 -9 12 -1 25 4 28 9 3 6 5 10 3 9 -2 -1
-14 -5 -28 -9z"/>
<path d="M1903 544 c0 -23 1 -24 9 -10 7 12 7 21 0 28 -6 6 -9 0 -9 -18z"/>
<path d="M280 556 c0 -2 7 -7 16 -10 8 -3 12 -2 9 4 -6 10 -25 14 -25 6z"/>
<path d="M1430 549 c0 -5 5 -7 10 -4 6 3 10 8 10 11 0 2 -4 4 -10 4 -5 0 -10
-5 -10 -11z"/>
<path d="M1770 546 c0 -2 7 -7 16 -10 8 -3 12 -2 9 4 -6 10 -25 14 -25 6z"/>
<path d="M1610 530 c0 -5 7 -7 15 -4 8 4 15 8 15 10 0 2 -7 4 -15 4 -8 0 -15
-4 -15 -10z"/>
<path d="M410 519 c0 -5 5 -7 10 -4 6 3 10 8 10 11 0 2 -4 4 -10 4 -5 0 -10
-5 -10 -11z"/>
<path d="M1520 514 c0 -8 5 -12 10 -9 6 4 8 11 5 16 -9 14 -15 11 -15 -7z"/>
<path d="M3165 499 c-11 -16 -1 -19 13 -3 7 8 8 14 3 14 -5 0 -13 -5 -16 -11z"/>
<path d="M286 485 c-3 -8 -1 -15 4 -15 6 0 10 7 10 15 0 8 -2 15 -4 15 -2 0
-6 -7 -10 -15z"/>
<path d="M870 480 c-9 -6 -10 -10 -3 -10 6 0 15 5 18 10 8 12 4 12 -15 0z"/>
<path d="M3421 473 c0 -12 -5 -25 -11 -28 -5 -3 -10 -16 -10 -28 1 -17 4 -15
16 12 8 19 13 42 11 50 -3 10 -5 8 -6 -6z"/>
<path d="M1666 461 c-4 -5 -9 -31 -11 -58 -6 -53 -12 -98 -15 -98 -1 0 -3 -29
-5 -65 -7 -116 -16 -174 -26 -159 -7 11 -9 11 -9 -3 0 -10 5 -18 10 -18 6 0 8
-13 5 -30 -4 -21 -1 -30 9 -30 10 0 15 26 20 108 4 59 13 163 20 232 13 125
14 140 2 121z"/>
<path d="M1900 450 c0 -5 5 -10 11 -10 5 0 7 5 4 10 -3 6 -8 10 -11 10 -2 0
-4 -4 -4 -10z"/>
<path d="M2735 450 c3 -5 8 -10 11 -10 2 0 4 5 4 10 0 6 -5 10 -11 10 -5 0 -7
-4 -4 -10z"/>
<path d="M1830 433 c0 -5 5 -15 10 -23 7 -12 9 -10 7 8 -1 19 -17 33 -17 15z"/>
<path d="M3136 377 c3 -10 9 -15 12 -12 3 3 0 11 -7 18 -10 9 -11 8 -5 -6z"/>
<path d="M3378 357 c-14 -26 -25 -57 -33 -87 -1 -3 -7 -18 -13 -33 -16 -38
-15 -46 2 -22 7 11 19 38 25 60 7 22 19 55 28 73 19 44 12 51 -9 9z"/>
<path d="M1630 359 c0 -5 5 -7 10 -4 6 3 10 8 10 11 0 2 -4 4 -10 4 -5 0 -10
-5 -10 -11z"/>
<path d="M2481 354 c0 -11 3 -14 6 -6 3 7 2 16 -1 19 -3 4 -6 -2 -5 -13z"/>
<path d="M1859 343 c-13 -16 -12 -17 4 -4 16 13 21 21 13 21 -2 0 -10 -8 -17
-17z"/>
<path d="M951 334 c0 -11 3 -14 6 -6 3 7 2 16 -1 19 -3 4 -6 -2 -5 -13z"/>
<path d="M3025 340 c-3 -6 1 -7 9 -4 18 7 21 14 7 14 -6 0 -13 -4 -16 -10z"/>
<path d="M279 338 c-5 -18 -6 -38 -1 -34 7 8 12 36 6 36 -2 0 -4 -1 -5 -2z"/>
<path d="M470 329 c0 -5 5 -7 10 -4 6 3 10 8 10 11 0 2 -4 4 -10 4 -5 0 -10
-5 -10 -11z"/>
<path d="M2205 330 c3 -5 8 -10 11 -10 2 0 4 5 4 10 0 6 -5 10 -11 10 -5 0 -7
-4 -4 -10z"/>
<path d="M2338 333 c7 -3 16 -2 19 1 4 3 -2 6 -13 5 -11 0 -14 -3 -6 -6z"/>
<path d="M1417 300 c3 -11 7 -20 9 -20 2 0 4 9 4 20 0 11 -4 20 -9 20 -5 0 -7
-9 -4 -20z"/>
<path d="M2095 300 c3 -5 8 -10 11 -10 2 0 4 5 4 10 0 6 -5 10 -11 10 -5 0 -7
-4 -4 -10z"/>
<path d="M748 288 c5 -5 16 -8 23 -6 8 3 3 7 -10 11 -17 4 -21 3 -13 -5z"/>
<path d="M3050 270 c0 -5 5 -10 10 -10 6 0 10 5 10 10 0 6 -4 10 -10 10 -5 0
-10 -4 -10 -10z"/>
<path d="M2905 250 c-3 -5 -1 -10 4 -10 6 0 11 5 11 10 0 6 -2 10 -4 10 -3 0
-8 -4 -11 -10z"/>
<path d="M541 234 c0 -11 3 -14 6 -6 3 7 2 16 -1 19 -3 4 -6 -2 -5 -13z"/>
<path d="M1421 224 c0 -11 3 -14 6 -6 3 7 2 16 -1 19 -3 4 -6 -2 -5 -13z"/>
<path d="M1451 224 c0 -11 3 -14 6 -6 3 7 2 16 -1 19 -3 4 -6 -2 -5 -13z"/>
<path d="M1696 227 c3 -10 9 -15 12 -12 3 3 0 11 -7 18 -10 9 -11 8 -5 -6z"/>
<path d="M2925 229 c-4 -6 -5 -12 -2 -15 2 -3 7 2 10 11 7 17 1 20 -8 4z"/>
<path d="M2798 203 c7 -3 16 -2 19 1 4 3 -2 6 -13 5 -11 0 -14 -3 -6 -6z"/>
<path d="M2828 173 c7 -3 16 -2 19 1 4 3 -2 6 -13 5 -11 0 -14 -3 -6 -6z"/>
<path d="M1606 155 c4 -8 8 -15 10 -15 2 0 4 7 4 15 0 8 -4 15 -10 15 -5 0 -7
-7 -4 -15z"/>
<path d="M2218 163 c7 -3 16 -2 19 1 4 3 -2 6 -13 5 -11 0 -14 -3 -6 -6z"/>
<path d="M41 155 c0 -5 6 -21 14 -35 8 -14 14 -20 14 -15 0 6 -6 21 -14 35 -8
14 -14 21 -14 15z"/>
<path d="M3302 140 c0 -14 2 -19 5 -12 2 6 2 18 0 25 -3 6 -5 1 -5 -13z"/>
<path d="M561 134 c0 -11 3 -14 6 -6 3 7 2 16 -1 19 -3 4 -6 -2 -5 -13z"/>
<path d="M2075 140 c-13 -6 -15 -9 -5 -9 8 0 22 4 30 9 18 12 2 12 -25 0z"/>
<path d="M1550 99 c0 -5 5 -7 10 -4 6 3 10 8 10 11 0 2 -4 4 -10 4 -5 0 -10
-5 -10 -11z"/>
<path d="M2790 86 c0 -8 4 -17 9 -20 5 -4 7 3 4 14 -6 23 -13 26 -13 6z"/>
<path d="M770 61 c0 -6 4 -13 10 -16 6 -3 7 1 4 9 -7 18 -14 21 -14 7z"/>
<path d="M1350 55 c-7 -9 -8 -15 -2 -15 5 0 12 7 16 15 3 8 4 15 2 15 -2 0 -9
-7 -16 -15z"/>
<path d="M240 15 c0 -8 5 -15 10 -15 6 0 10 7 10 15 0 8 -4 15 -10 15 -5 0
-10 -7 -10 -15z"/>
</g>
</svg>
